{"glyphs":{"0":{"ha":885,"x_min":0,"x_max":0,"o":"m 54 524 b 442 -17 54 219 219 -17 b 831 524 665 -17 831 219 b 442 1064 831 828 665 1064 b 54 524 219 1064 54 828 z m 226 524 b 442 901 226 739 310 901 b 658 524 575 901 658 739 b 442 146 658 308 575 146 b 226 524 310 146 226 308 z "},"1":{"ha":504,"x_min":0,"x_max":0,"o":"m 392 1047 l 113 1047 l 19 899 l 219 899 l 219 0 l 392 0 z "},"2":{"ha":733,"x_min":0,"x_max":0,"o":"m 188 729 b 360 903 188 822 257 903 b 518 736 461 903 518 825 b 363 442 518 632 450 546 l -6 0 l 707 0 l 707 149 l 315 149 l 485 347 b 689 746 564 444 689 585 b 360 1063 689 928 563 1063 b 15 729 164 1063 21 911 z "},"3":{"ha":743,"x_min":0,"x_max":0,"o":"m 353 488 b 540 311 458 488 540 422 b 358 129 540 203 463 129 b 176 333 244 129 172 219 l 6 333 b 360 -17 1 132 142 -17 b 707 306 558 -17 707 124 b 536 564 707 431 636 518 b 664 779 604 601 664 679 b 367 1064 664 944 546 1064 b 51 743 167 1064 51 911 l 211 743 b 364 915 208 847 271 915 b 503 774 443 915 503 854 b 351 626 503 685 433 626 l 325 626 l 325 488 z "},"4":{"ha":874,"x_min":0,"x_max":0,"o":"m 681 0 l 681 221 l 867 221 l 867 360 l 681 360 l 681 1081 l -28 221 l 514 221 l 514 0 z m 269 360 l 514 671 l 514 360 z "},"5":{"ha":744,"x_min":0,"x_max":0,"o":"m 343 135 b 111 326 229 135 138 215 l -24 233 b 339 -17 21 92 164 -17 b 724 349 560 -17 724 150 b 381 693 724 538 588 693 b 289 681 350 693 318 689 l 346 899 l 671 899 l 671 1047 l 232 1047 l 86 481 b 318 556 167 528 242 556 b 556 343 461 556 556 465 b 343 135 556 218 461 135 z "},"6":{"ha":808,"x_min":0,"x_max":0,"o":"m 767 344 b 417 692 767 543 614 692 l 403 692 l 619 978 l 488 1065 l 158 621 b 46 343 83 521 46 439 b 406 -17 46 143 206 -17 b 767 344 607 -17 767 143 z m 407 549 b 606 343 517 549 606 461 b 407 139 606 226 517 139 b 208 343 296 139 208 226 b 407 549 208 461 296 549 z "},"7":{"ha":804,"x_min":0,"x_max":0,"o":"m 825 1047 l 22 1047 l 22 899 l 556 899 l 58 68 l 200 -15 z "},"8":{"ha":767,"x_min":0,"x_max":0,"o":"m 383 1064 b 90 788 222 1064 90 949 b 217 568 90 688 144 610 b 33 301 122 529 33 432 b 383 -17 33 118 192 -17 b 733 301 575 -17 733 118 b 550 568 733 432 644 529 b 676 788 622 610 676 688 b 383 1064 676 949 544 1064 z m 383 643 b 243 783 308 643 243 703 b 383 924 243 864 308 924 b 524 783 458 924 524 864 b 383 643 524 703 458 643 z m 383 131 b 204 311 283 131 204 206 b 383 490 204 417 283 490 b 564 311 483 490 564 417 b 383 131 564 206 483 131 z "},"9":{"ha":808,"x_min":0,"x_max":0,"o":"m 42 703 b 392 356 42 504 194 356 l 406 356 l 189 69 l 321 -18 l 650 426 b 763 704 725 526 763 608 b 403 1064 763 904 603 1064 b 42 703 201 1064 42 904 z m 401 499 b 203 704 292 499 203 586 b 401 908 203 821 292 908 b 600 704 513 908 600 821 b 401 499 600 586 513 499 z "}," ":{"ha":311,"x_min":0,"x_max":0,"o":""}," ":{"ha":311,"x_min":0,"x_max":0,"o":""}," ":{"ha":107,"x_min":0,"x_max":0,"o":""},"A":{"ha":1035,"x_min":0,"x_max":0,"o":"m 854 0 l 1035 0 l 517 1086 l -1 0 l 178 0 l 282 225 l 750 225 z m 517 729 l 683 368 l 349 368 z "},"B":{"ha":821,"x_min":0,"x_max":0,"o":"m 583 556 b 724 771 651 588 724 658 b 385 1047 724 933 593 1047 l 115 1047 l 115 0 l 432 0 b 789 299 658 0 789 124 b 583 556 789 426 706 522 z m 286 903 l 376 903 b 549 751 475 903 549 850 b 376 600 549 653 475 600 l 286 600 z m 286 465 l 424 465 b 614 304 543 465 614 404 b 424 144 614 206 543 144 l 286 144 z "},"C":{"ha":919,"x_min":0,"x_max":0,"o":"m 226 524 b 594 897 226 736 386 897 b 856 797 700 897 792 860 l 856 999 b 593 1064 778 1042 688 1064 b 50 524 292 1064 50 822 b 593 -17 50 225 292 -17 b 856 49 688 -17 778 6 l 856 250 b 594 150 792 188 700 150 b 226 524 386 150 226 311 z "},"D":{"ha":1008,"x_min":0,"x_max":0,"o":"m 114 1047 l 114 0 l 394 0 b 958 524 717 0 958 215 b 394 1047 958 832 717 1047 z m 783 524 b 388 149 783 300 617 149 l 288 149 l 288 899 l 389 899 b 783 524 617 899 783 747 z "},"E":{"ha":781,"x_min":0,"x_max":0,"o":"m 114 0 l 703 0 l 703 149 l 286 149 l 286 472 l 697 472 l 697 621 l 286 621 l 286 899 l 703 899 l 703 1047 l 114 1047 z "},"F":{"ha":735,"x_min":0,"x_max":0,"o":"m 114 0 l 286 0 l 286 468 l 665 468 l 665 617 l 286 617 l 286 899 l 671 899 l 671 1047 l 114 1047 z "},"G":{"ha":1122,"x_min":0,"x_max":0,"o":"m 1089 543 l 643 543 l 643 394 l 904 394 b 592 146 874 233 756 146 b 226 524 388 146 226 313 b 590 897 226 735 388 897 b 883 731 717 897 819 832 l 1022 838 b 590 1064 926 976 772 1064 b 50 524 290 1064 50 822 b 590 -17 50 225 290 -17 b 1089 543 892 -17 1106 207 z "},"H":{"ha":1047,"x_min":0,"x_max":0,"o":"m 758 0 l 933 0 l 933 1047 l 758 1047 l 758 619 l 288 619 l 288 1047 l 114 1047 l 114 0 l 288 0 l 288 471 l 758 471 z "},"I":{"ha":401,"x_min":0,"x_max":0,"o":"m 288 1047 l 114 1047 l 114 0 l 288 0 z "},"J":{"ha":651,"x_min":0,"x_max":0,"o":"m 551 300 l 551 1047 l 376 1047 l 376 304 b 238 143 376 201 324 143 b 106 224 179 143 138 175 l -17 110 b 239 -17 32 38 133 -17 b 551 300 419 -17 551 117 z "},"K":{"ha":936,"x_min":0,"x_max":0,"o":"m 289 1047 l 114 1047 l 114 0 l 289 0 l 289 408 l 351 476 l 729 0 l 943 0 l 474 594 l 903 1047 l 692 1047 l 289 610 z "},"L":{"ha":749,"x_min":0,"x_max":0,"o":"m 114 0 l 699 0 l 699 149 l 288 149 l 288 1047 l 114 1047 z "},"M":{"ha":1324,"x_min":0,"x_max":0,"o":"m 660 -39 l 968 618 l 1106 0 l 1285 0 l 1035 1086 l 663 299 l 289 1086 l 40 0 l 214 0 l 351 618 z "},"N":{"ha":1160,"x_min":0,"x_max":0,"o":"m 114 1086 l 114 0 l 283 0 l 283 707 l 1046 -39 l 1046 1047 l 876 1047 l 876 340 z "},"O":{"ha":1179,"x_min":0,"x_max":0,"o":"m 50 524 b 590 -17 50 225 290 -17 b 1129 524 889 -17 1129 225 b 590 1064 1129 822 889 1064 b 50 524 290 1064 50 822 z m 954 524 b 590 147 954 310 793 147 b 226 524 386 147 226 310 b 590 900 226 738 386 900 b 954 524 793 900 954 738 z "},"P":{"ha":793,"x_min":0,"x_max":0,"o":"m 288 417 l 394 417 b 760 732 606 417 760 533 b 394 1047 760 931 606 1047 l 114 1047 l 114 0 l 288 0 z m 288 901 l 389 901 b 588 732 500 901 588 851 b 389 563 588 614 500 563 l 288 563 z "},"Q":{"ha":1179,"x_min":0,"x_max":0,"o":"m 50 524 b 590 -17 50 225 290 -17 b 871 63 693 -17 789 13 l 932 0 l 1139 0 l 986 158 b 1129 524 1075 254 1129 383 b 590 1064 1129 822 889 1064 b 50 524 290 1064 50 822 z m 954 524 b 872 276 954 426 924 342 l 728 426 l 519 426 l 756 183 b 590 146 706 158 650 146 b 226 524 386 146 226 310 b 590 900 226 738 386 900 b 954 524 793 900 954 738 z "},"R":{"ha":863,"x_min":0,"x_max":0,"o":"m 288 424 l 326 424 l 638 0 l 843 0 l 513 440 b 758 735 658 478 758 582 b 388 1047 758 933 600 1047 l 114 1047 l 114 0 l 288 0 z m 288 901 l 382 901 b 585 732 493 901 585 851 b 382 560 585 614 493 560 l 288 560 z "},"S":{"ha":768,"x_min":0,"x_max":0,"o":"m 735 315 b 240 776 735 678 240 567 b 385 915 240 861 303 915 b 543 794 467 915 518 864 l 699 860 b 392 1064 656 981 544 1064 b 71 764 203 1064 71 932 b 563 306 71 415 563 536 b 378 132 563 200 478 132 b 164 321 267 132 192 204 l 3 275 b 374 -17 38 99 183 -17 b 735 315 575 -17 735 129 z "},"T":{"ha":807,"x_min":0,"x_max":0,"o":"m 757 899 l 757 1047 l 50 1047 l 50 899 l 317 899 l 317 0 l 490 0 l 490 899 z "},"U":{"ha":999,"x_min":0,"x_max":0,"o":"m 500 143 b 274 408 364 143 274 233 l 274 1047 l 100 1047 l 100 406 b 500 -17 100 132 275 -17 b 899 406 724 -17 899 132 l 899 1047 l 725 1047 l 725 408 b 500 143 725 233 635 143 z "},"V":{"ha":979,"x_min":0,"x_max":0,"o":"m 493 339 l 189 1047 l -1 1047 l 489 -39 l 979 1047 l 796 1047 z "},"W":{"ha":1492,"x_min":0,"x_max":0,"o":"m 1492 1047 l 1311 1047 l 1028 361 l 750 1065 l 472 361 l 189 1047 l -1 1047 l 461 -39 l 746 668 l 1031 -39 z "},"X":{"ha":888,"x_min":0,"x_max":0,"o":"m 32 1047 l 347 549 l -1 0 l 189 0 l 443 406 l 693 0 l 889 0 l 539 553 l 853 1047 l 663 1047 l 444 696 l 226 1047 z "},"Y":{"ha":889,"x_min":0,"x_max":0,"o":"m 532 0 l 532 451 l 894 1047 l 701 1047 l 446 618 l 192 1047 l -6 1047 l 357 451 l 357 0 z "},"Z":{"ha":871,"x_min":0,"x_max":0,"o":"m 543 899 l 26 0 l 819 0 l 819 149 l 301 149 l 818 1047 l 79 1047 l 79 899 z "},"Á":{"ha":1035,"x_min":0,"x_max":0,"o":"m 408 1174 l 469 1103 l 789 1301 l 682 1426 z m 854 0 l 1035 0 l 517 1086 l -1 0 l 178 0 l 282 225 l 750 225 z m 517 729 l 683 368 l 349 368 z "},"Ă":{"ha":1035,"x_min":0,"x_max":0,"o":"m 518 1115 b 764 1346 649 1115 754 1206 l 639 1364 b 518 1239 631 1283 581 1239 b 396 1364 454 1239 404 1283 l 272 1346 b 518 1115 282 1206 386 1115 z m 854 0 l 1035 0 l 517 1086 l -1 0 l 178 0 l 282 225 l 750 225 z m 517 729 l 683 368 l 349 368 z "},"Â":{"ha":1035,"x_min":0,"x_max":0,"o":"m 518 1425 l 256 1186 l 329 1117 l 518 1243 l 706 1117 l 781 1186 z m 854 0 l 1035 0 l 517 1086 l -1 0 l 178 0 l 282 225 l 750 225 z m 517 729 l 683 368 l 349 368 z "},"Ä":{"ha":1035,"x_min":0,"x_max":0,"o":"m 353 1143 b 453 1243 407 1143 453 1188 b 353 1342 453 1297 407 1342 b 253 1243 299 1342 253 1297 b 353 1143 253 1188 299 1143 z m 682 1143 b 782 1243 738 1143 782 1188 b 682 1342 782 1297 738 1342 b 583 1243 629 1342 583 1297 b 682 1143 583 1188 629 1143 z m 854 0 l 1035 0 l 517 1086 l -1 0 l 178 0 l 282 225 l 750 225 z m 517 729 l 683 368 l 349 368 z "},"À":{"ha":1035,"x_min":0,"x_max":0,"o":"m 657 1174 l 383 1426 l 276 1301 l 596 1103 z m 854 0 l 1035 0 l 517 1086 l -1 0 l 178 0 l 282 225 l 750 225 z m 517 729 l 683 368 l 349 368 z "},"Ā":{"ha":1035,"x_min":0,"x_max":0,"o":"m 285 1149 l 750 1149 l 750 1283 l 285 1283 z m 854 0 l 1035 0 l 517 1086 l -1 0 l 178 0 l 282 225 l 750 225 z m 517 729 l 683 368 l 349 368 z "},"Ą":{"ha":1035,"x_min":0,"x_max":0,"o":"m 1039 -285 l 979 -196 b 899 -243 953 -226 926 -243 b 843 -187 868 -243 843 -222 b 983 0 843 -142 885 -92 l 1035 0 l 517 1086 l -1 0 l 178 0 l 282 225 l 750 225 l 853 4 b 715 -222 763 -76 715 -147 b 874 -364 715 -315 792 -364 b 1039 -285 933 -364 990 -342 z m 517 729 l 683 368 l 349 368 z "},"Å":{"ha":1035,"x_min":0,"x_max":0,"o":"m 718 1104 b 518 1299 718 1211 629 1299 b 318 1104 407 1299 318 1211 b 439 924 318 1024 368 954 l -1 0 l 178 0 l 282 225 l 750 225 l 854 0 l 1035 0 l 596 924 b 718 1104 668 953 718 1022 z m 426 1104 b 518 1196 426 1156 467 1196 b 611 1104 569 1196 611 1156 b 518 1013 611 1051 569 1013 b 426 1104 467 1013 426 1051 z m 517 729 l 683 368 l 349 368 z "},"Ã":{"ha":1035,"x_min":0,"x_max":0,"o":"m 619 1292 b 403 1375 558 1292 493 1375 b 244 1171 311 1375 250 1283 l 353 1157 b 415 1242 357 1214 381 1242 b 631 1158 478 1242 542 1158 b 790 1361 724 1158 785 1249 l 681 1376 b 619 1292 678 1319 654 1292 z m 854 0 l 1035 0 l 517 1086 l -1 0 l 178 0 l 282 225 l 750 225 z m 517 729 l 683 368 l 349 368 z "},"Æ":{"ha":1390,"x_min":0,"x_max":0,"o":"m 728 0 l 1317 0 l 1317 149 l 900 149 l 900 472 l 1311 472 l 1311 621 l 900 621 l 900 899 l 1317 899 l 1317 1047 l 663 1047 l -14 0 l 172 0 l 333 251 l 728 251 z m 429 400 l 728 865 l 728 400 z "},"Ǽ":{"ha":1390,"x_min":0,"x_max":0,"o":"m 851 1174 l 913 1103 l 1232 1301 l 1125 1426 z m 728 0 l 1317 0 l 1317 149 l 900 149 l 900 472 l 1311 472 l 1311 621 l 900 621 l 900 899 l 1317 899 l 1317 1047 l 663 1047 l -14 0 l 172 0 l 333 251 l 728 251 z m 429 400 l 728 865 l 728 400 z "},"Ć":{"ha":919,"x_min":0,"x_max":0,"o":"m 443 1174 l 504 1103 l 824 1301 l 717 1426 z m 226 524 b 594 897 226 736 386 897 b 856 797 700 897 792 860 l 856 999 b 593 1064 778 1042 688 1064 b 50 524 292 1064 50 822 b 593 -17 50 225 292 -17 b 856 49 688 -17 778 6 l 856 250 b 594 150 792 188 700 150 b 226 524 386 150 226 311 z "},"Č":{"ha":919,"x_min":0,"x_max":0,"o":"m 583 1110 l 846 1349 l 772 1418 l 583 1292 l 396 1418 l 321 1349 z m 226 524 b 594 897 226 736 386 897 b 856 797 700 897 792 860 l 856 999 b 593 1064 778 1042 688 1064 b 50 524 292 1064 50 822 b 593 -17 50 225 292 -17 b 856 49 688 -17 778 6 l 856 250 b 594 150 792 188 700 150 b 226 524 386 150 226 311 z "},"Ç":{"ha":919,"x_min":0,"x_max":0,"o":"m 226 524 b 594 897 226 736 386 897 b 856 797 700 897 792 860 l 856 999 b 593 1064 778 1042 688 1064 b 50 524 292 1064 50 822 b 593 -17 50 225 292 -17 b 856 49 688 -17 778 6 l 856 250 b 594 150 792 188 700 150 b 226 524 386 150 226 311 z m 418 -311 l 500 -364 l 694 -140 l 560 -57 z "},"Ĉ":{"ha":919,"x_min":0,"x_max":0,"o":"m 553 1425 l 290 1186 l 364 1117 l 553 1243 l 740 1117 l 815 1186 z m 226 524 b 594 897 226 736 386 897 b 856 797 700 897 792 860 l 856 999 b 593 1064 778 1042 688 1064 b 50 524 292 1064 50 822 b 593 -17 50 225 292 -17 b 856 49 688 -17 778 6 l 856 250 b 594 150 792 188 700 150 b 226 524 386 150 226 311 z "},"Ċ":{"ha":919,"x_min":0,"x_max":0,"o":"m 553 1146 b 654 1247 608 1146 654 1190 b 553 1349 654 1303 608 1349 b 450 1247 497 1349 450 1303 b 553 1146 450 1190 497 1146 z m 226 524 b 594 897 226 736 386 897 b 856 797 700 897 792 860 l 856 999 b 593 1064 778 1042 688 1064 b 50 524 292 1064 50 822 b 593 -17 50 225 292 -17 b 856 49 688 -17 778 6 l 856 250 b 594 150 792 188 700 150 b 226 524 386 150 226 311 z "},"Ď":{"ha":1008,"x_min":0,"x_max":0,"o":"m 532 1110 l 794 1349 l 721 1418 l 532 1292 l 344 1418 l 269 1349 z m 114 1047 l 114 0 l 394 0 b 958 524 717 0 958 215 b 394 1047 958 832 717 1047 z m 783 524 b 388 149 783 300 617 149 l 288 149 l 288 899 l 389 899 b 783 524 617 899 783 747 z "},"Đ":{"ha":1008,"x_min":0,"x_max":0,"o":"m 26 472 l 118 472 l 118 0 l 399 0 b 963 524 721 0 963 215 b 399 1047 963 832 721 1047 l 118 1047 l 118 621 l 26 621 z m 788 524 b 392 149 788 300 621 149 l 292 149 l 292 472 l 476 472 l 476 621 l 292 621 l 292 899 l 393 899 b 788 524 621 899 788 747 z "},"É":{"ha":781,"x_min":0,"x_max":0,"o":"m 307 1174 l 368 1103 l 688 1301 l 581 1426 z m 114 0 l 703 0 l 703 149 l 286 149 l 286 472 l 697 472 l 697 621 l 286 621 l 286 899 l 703 899 l 703 1047 l 114 1047 z "},"Ĕ":{"ha":781,"x_min":0,"x_max":0,"o":"m 417 1115 b 663 1346 547 1115 653 1206 l 538 1364 b 417 1239 529 1283 479 1239 b 294 1364 353 1239 303 1283 l 171 1346 b 417 1115 181 1206 285 1115 z m 114 0 l 703 0 l 703 149 l 286 149 l 286 472 l 697 472 l 697 621 l 286 621 l 286 899 l 703 899 l 703 1047 l 114 1047 z "},"Ě":{"ha":781,"x_min":0,"x_max":0,"o":"m 447 1110 l 710 1349 l 636 1418 l 447 1292 l 260 1418 l 185 1349 z m 114 0 l 703 0 l 703 149 l 286 149 l 286 472 l 697 472 l 697 621 l 286 621 l 286 899 l 703 899 l 703 1047 l 114 1047 z "},"Ê":{"ha":781,"x_min":0,"x_max":0,"o":"m 417 1425 l 154 1186 l 228 1117 l 417 1243 l 604 1117 l 679 1186 z m 114 0 l 703 0 l 703 149 l 286 149 l 286 472 l 697 472 l 697 621 l 286 621 l 286 899 l 703 899 l 703 1047 l 114 1047 z "},"Ë":{"ha":781,"x_min":0,"x_max":0,"o":"m 251 1143 b 351 1243 306 1143 351 1188 b 251 1342 351 1297 306 1342 b 151 1243 197 1342 151 1297 b 251 1143 151 1188 197 1143 z m 581 1143 b 681 1243 636 1143 681 1188 b 581 1342 681 1297 636 1342 b 482 1243 528 1342 482 1297 b 581 1143 482 1188 528 1143 z m 114 0 l 703 0 l 703 149 l 286 149 l 286 472 l 697 472 l 697 621 l 286 621 l 286 899 l 703 899 l 703 1047 l 114 1047 z "},"Ė":{"ha":781,"x_min":0,"x_max":0,"o":"m 417 1146 b 518 1247 472 1146 518 1190 b 417 1349 518 1303 472 1349 b 314 1247 361 1349 314 1303 b 417 1146 314 1190 361 1146 z m 114 0 l 703 0 l 703 149 l 286 149 l 286 472 l 697 472 l 697 621 l 286 621 l 286 899 l 703 899 l 703 1047 l 114 1047 z "},"È":{"ha":781,"x_min":0,"x_max":0,"o":"m 556 1174 l 282 1426 l 175 1301 l 494 1103 z m 114 0 l 703 0 l 703 149 l 286 149 l 286 472 l 697 472 l 697 621 l 286 621 l 286 899 l 703 899 l 703 1047 l 114 1047 z "},"Ē":{"ha":781,"x_min":0,"x_max":0,"o":"m 183 1149 l 649 1149 l 649 1283 l 183 1283 z m 114 0 l 703 0 l 703 149 l 286 149 l 286 472 l 697 472 l 697 621 l 286 621 l 286 899 l 703 899 l 703 1047 l 114 1047 z "},"Ę":{"ha":781,"x_min":0,"x_max":0,"o":"m 114 0 l 472 0 b 339 -222 385 -78 339 -149 b 497 -364 339 -315 415 -364 b 663 -285 557 -364 614 -342 l 603 -196 b 522 -243 576 -226 550 -243 b 467 -187 492 -243 467 -222 b 607 0 467 -142 508 -92 l 703 0 l 703 149 l 286 149 l 286 472 l 697 472 l 697 621 l 286 621 l 286 899 l 703 899 l 703 1047 l 114 1047 z "},"Ð":{"ha":1008,"x_min":0,"x_max":0,"o":"m 26 472 l 118 472 l 118 0 l 399 0 b 963 524 721 0 963 215 b 399 1047 963 832 721 1047 l 118 1047 l 118 621 l 26 621 z m 788 524 b 392 149 788 300 621 149 l 292 149 l 292 472 l 476 472 l 476 621 l 292 621 l 292 899 l 393 899 b 788 524 621 899 788 747 z "},"Ğ":{"ha":1122,"x_min":0,"x_max":0,"o":"m 569 1115 b 815 1346 700 1115 806 1206 l 690 1364 b 569 1239 682 1283 632 1239 b 447 1364 506 1239 456 1283 l 324 1346 b 569 1115 333 1206 438 1115 z m 1089 543 l 643 543 l 643 394 l 904 394 b 592 146 874 233 756 146 b 226 524 388 146 226 313 b 590 897 226 735 388 897 b 883 731 717 897 819 832 l 1022 838 b 590 1064 926 976 772 1064 b 50 524 290 1064 50 822 b 590 -17 50 225 290 -17 b 1089 543 892 -17 1106 207 z "},"Ĝ":{"ha":1122,"x_min":0,"x_max":0,"o":"m 569 1425 l 307 1186 l 381 1117 l 569 1243 l 757 1117 l 832 1186 z m 1089 543 l 643 543 l 643 394 l 904 394 b 592 146 874 233 756 146 b 226 524 388 146 226 313 b 590 897 226 735 388 897 b 883 731 717 897 819 832 l 1022 838 b 590 1064 926 976 772 1064 b 50 524 290 1064 50 822 b 590 -17 50 225 290 -17 b 1089 543 892 -17 1106 207 z "},"Ģ":{"ha":1122,"x_min":0,"x_max":0,"o":"m 1089 543 l 643 543 l 643 394 l 904 394 b 592 146 874 233 756 146 b 226 524 388 146 226 313 b 590 897 226 735 388 897 b 883 731 717 897 819 832 l 1022 838 b 590 1064 926 976 772 1064 b 50 524 290 1064 50 822 b 590 -17 50 225 290 -17 b 1089 543 892 -17 1106 207 z m 435 -311 l 517 -364 l 711 -140 l 576 -57 z "},"Ġ":{"ha":1122,"x_min":0,"x_max":0,"o":"m 569 1146 b 671 1247 625 1146 671 1190 b 569 1349 671 1303 625 1349 b 467 1247 514 1349 467 1303 b 569 1146 467 1190 514 1146 z m 1089 543 l 643 543 l 643 394 l 904 394 b 592 146 874 233 756 146 b 226 524 388 146 226 313 b 590 897 226 735 388 897 b 883 731 717 897 819 832 l 1022 838 b 590 1064 926 976 772 1064 b 50 524 290 1064 50 822 b 590 -17 50 225 290 -17 b 1089 543 892 -17 1106 207 z "},"Ħ":{"ha":1056,"x_min":0,"x_max":0,"o":"m 764 0 l 938 0 l 938 700 l 1031 700 l 1031 849 l 938 849 l 938 1047 l 764 1047 l 764 849 l 293 849 l 293 1047 l 118 1047 l 118 849 l 26 849 l 26 700 l 118 700 l 118 0 l 293 0 l 293 378 l 764 378 z m 293 526 l 293 700 l 764 700 l 764 526 z "},"Ĥ":{"ha":1047,"x_min":0,"x_max":0,"o":"m 524 1425 l 261 1186 l 335 1117 l 524 1243 l 711 1117 l 786 1186 z m 758 0 l 933 0 l 933 1047 l 758 1047 l 758 619 l 288 619 l 288 1047 l 114 1047 l 114 0 l 288 0 l 288 471 l 758 471 z "},"Í":{"ha":401,"x_min":0,"x_max":0,"o":"m 92 1174 l 153 1103 l 472 1301 l 365 1426 z m 288 1047 l 114 1047 l 114 0 l 288 0 z "},"Ĭ":{"ha":401,"x_min":0,"x_max":0,"o":"m 201 1115 b 447 1346 332 1115 438 1206 l 322 1364 b 201 1239 314 1283 264 1239 b 79 1364 138 1239 88 1283 l -44 1346 b 201 1115 -35 1206 69 1115 z m 288 1047 l 114 1047 l 114 0 l 288 0 z "},"Î":{"ha":401,"x_min":0,"x_max":0,"o":"m 201 1425 l -61 1186 l 13 1117 l 201 1243 l 389 1117 l 464 1186 z m 288 1047 l 114 1047 l 114 0 l 288 0 z "},"Ï":{"ha":401,"x_min":0,"x_max":0,"o":"m 36 1143 b 136 1243 90 1143 136 1188 b 36 1342 136 1297 90 1342 b -64 1243 -18 1342 -64 1297 b 36 1143 -64 1188 -18 1143 z m 365 1143 b 465 1243 421 1143 465 1188 b 365 1342 465 1297 421 1342 b 267 1243 313 1342 267 1297 b 365 1143 267 1188 313 1143 z m 288 1047 l 114 1047 l 114 0 l 288 0 z "},"İ":{"ha":401,"x_min":0,"x_max":0,"o":"m 201 1146 b 303 1247 257 1146 303 1190 b 201 1349 303 1303 257 1349 b 99 1247 146 1349 99 1303 b 201 1146 99 1190 146 1146 z m 288 1047 l 114 1047 l 114 0 l 288 0 z "},"Ì":{"ha":401,"x_min":0,"x_max":0,"o":"m 340 1174 l 67 1426 l -40 1301 l 279 1103 z m 288 1047 l 114 1047 l 114 0 l 288 0 z "},"Ī":{"ha":401,"x_min":0,"x_max":0,"o":"m -32 1149 l 433 1149 l 433 1283 l -32 1283 z m 288 1047 l 114 1047 l 114 0 l 288 0 z "},"Į":{"ha":401,"x_min":0,"x_max":0,"o":"m 288 1047 l 114 1047 l 114 0 l 135 0 b 1 -222 47 -78 1 -149 b 160 -364 1 -315 78 -364 b 325 -285 219 -364 276 -342 l 265 -196 b 185 -243 239 -226 213 -243 b 129 -187 154 -243 129 -222 b 269 0 129 -142 171 -92 l 288 0 z "},"Ĩ":{"ha":401,"x_min":0,"x_max":0,"o":"m 303 1292 b 86 1375 242 1292 176 1375 b -72 1171 -6 1375 -67 1283 l 36 1157 b 99 1242 40 1214 64 1242 b 314 1158 161 1242 225 1158 b 474 1361 407 1158 468 1249 l 364 1376 b 303 1292 361 1319 338 1292 z m 288 1047 l 114 1047 l 114 0 l 288 0 z "},"Ĵ":{"ha":651,"x_min":0,"x_max":0,"o":"m 464 1425 l 201 1186 l 275 1117 l 464 1243 l 651 1117 l 726 1186 z m 551 300 l 551 1047 l 376 1047 l 376 304 b 238 143 376 201 324 143 b 106 224 179 143 138 175 l -17 110 b 239 -17 32 38 133 -17 b 551 300 419 -17 551 117 z "},"Ĳ":{"ha":1053,"x_min":0,"x_max":0,"o":"m 288 1047 l 114 1047 l 114 0 l 288 0 z m 953 300 l 953 1047 l 778 1047 l 778 304 b 639 143 778 201 725 143 b 507 224 581 143 539 175 l 385 110 b 640 -17 433 38 535 -17 b 953 300 821 -17 953 117 z "},"Ķ":{"ha":936,"x_min":0,"x_max":0,"o":"m 289 1047 l 114 1047 l 114 0 l 289 0 l 289 408 l 351 476 l 729 0 l 943 0 l 474 594 l 903 1047 l 692 1047 l 289 610 z m 388 -311 l 469 -364 l 664 -140 l 529 -57 z "},"Ĺ":{"ha":749,"x_min":0,"x_max":0,"o":"m 96 1174 l 157 1103 l 476 1301 l 369 1426 z m 114 0 l 699 0 l 699 149 l 288 149 l 288 1047 l 114 1047 z "},"Ľ":{"ha":749,"x_min":0,"x_max":0,"o":"m 415 747 l 513 719 l 640 1021 l 485 1064 z m 114 0 l 699 0 l 699 149 l 288 149 l 288 1047 l 114 1047 z "},"Ļ":{"ha":749,"x_min":0,"x_max":0,"o":"m 114 0 l 699 0 l 699 149 l 288 149 l 288 1047 l 114 1047 z m 272 -311 l 354 -364 l 549 -140 l 414 -57 z "},"Ŀ":{"ha":749,"x_min":0,"x_max":0,"o":"m 114 0 l 699 0 l 699 149 l 288 149 l 288 1047 l 114 1047 z m 576 482 b 678 583 632 482 678 526 b 576 685 678 639 632 685 b 474 583 521 685 474 639 b 576 482 474 526 521 482 z "},"Ł":{"ha":751,"x_min":0,"x_max":0,"o":"m 294 607 l 294 1047 l 121 1047 l 121 540 l 13 488 l 13 339 l 121 392 l 121 0 l 706 0 l 706 149 l 294 149 l 294 458 l 517 563 l 517 711 z "},"Ń":{"ha":1160,"x_min":0,"x_max":0,"o":"m 471 1174 l 532 1103 l 851 1301 l 744 1426 z m 114 1086 l 114 0 l 283 0 l 283 707 l 1046 -39 l 1046 1047 l 876 1047 l 876 340 z "},"Ň":{"ha":1160,"x_min":0,"x_max":0,"o":"m 611 1110 l 874 1349 l 800 1418 l 611 1292 l 424 1418 l 349 1349 z m 114 1086 l 114 0 l 283 0 l 283 707 l 1046 -39 l 1046 1047 l 876 1047 l 876 340 z "},"Ņ":{"ha":1160,"x_min":0,"x_max":0,"o":"m 114 1086 l 114 0 l 283 0 l 283 707 l 1046 -39 l 1046 1047 l 876 1047 l 876 340 z m 446 -311 l 528 -364 l 722 -140 l 588 -57 z "},"Ñ":{"ha":1160,"x_min":0,"x_max":0,"o":"m 682 1292 b 465 1375 621 1292 556 1375 b 307 1171 374 1375 313 1283 l 415 1157 b 478 1242 419 1214 443 1242 b 693 1158 540 1242 604 1158 b 853 1361 786 1158 847 1249 l 743 1376 b 682 1292 740 1319 717 1292 z m 114 1086 l 114 0 l 283 0 l 283 707 l 1046 -39 l 1046 1047 l 876 1047 l 876 340 z "},"Ŋ":{"ha":1160,"x_min":0,"x_max":0,"o":"m 114 1086 l 114 0 l 283 0 l 283 707 l 882 113 l 882 -351 l 1046 -351 l 1046 1047 l 876 1047 l 876 340 z "},"Ó":{"ha":1179,"x_min":0,"x_max":0,"o":"m 481 1174 l 542 1103 l 861 1301 l 754 1426 z m 50 524 b 590 -17 50 225 290 -17 b 1129 524 889 -17 1129 225 b 590 1064 1129 822 889 1064 b 50 524 290 1064 50 822 z m 954 524 b 590 147 954 310 793 147 b 226 524 386 147 226 310 b 590 900 226 738 386 900 b 954 524 793 900 954 738 z "},"Ŏ":{"ha":1179,"x_min":0,"x_max":0,"o":"m 590 1115 b 836 1346 721 1115 826 1206 l 711 1364 b 590 1239 703 1283 653 1239 b 468 1364 526 1239 476 1283 l 344 1346 b 590 1115 354 1206 458 1115 z m 50 524 b 590 -17 50 225 290 -17 b 1129 524 889 -17 1129 225 b 590 1064 1129 822 889 1064 b 50 524 290 1064 50 822 z m 954 524 b 590 147 954 310 793 147 b 226 524 386 147 226 310 b 590 900 226 738 386 900 b 954 524 793 900 954 738 z "},"Ô":{"ha":1179,"x_min":0,"x_max":0,"o":"m 590 1425 l 328 1186 l 401 1117 l 590 1243 l 778 1117 l 853 1186 z m 50 524 b 590 -17 50 225 290 -17 b 1129 524 889 -17 1129 225 b 590 1064 1129 822 889 1064 b 50 524 290 1064 50 822 z m 954 524 b 590 147 954 310 793 147 b 226 524 386 147 226 310 b 590 900 226 738 386 900 b 954 524 793 900 954 738 z "},"Ö":{"ha":1179,"x_min":0,"x_max":0,"o":"m 425 1143 b 525 1243 479 1143 525 1188 b 425 1342 525 1297 479 1342 b 325 1243 371 1342 325 1297 b 425 1143 325 1188 371 1143 z m 754 1143 b 854 1243 810 1143 854 1188 b 754 1342 854 1297 810 1342 b 656 1243 701 1342 656 1297 b 754 1143 656 1188 701 1143 z m 50 524 b 590 -17 50 225 290 -17 b 1129 524 889 -17 1129 225 b 590 1064 1129 822 889 1064 b 50 524 290 1064 50 822 z m 954 524 b 590 147 954 310 793 147 b 226 524 386 147 226 310 b 590 900 226 738 386 900 b 954 524 793 900 954 738 z "},"Ò":{"ha":1179,"x_min":0,"x_max":0,"o":"m 729 1174 l 456 1426 l 349 1301 l 668 1103 z m 50 524 b 590 -17 50 225 290 -17 b 1129 524 889 -17 1129 225 b 590 1064 1129 822 889 1064 b 50 524 290 1064 50 822 z m 954 524 b 590 147 954 310 793 147 b 226 524 386 147 226 310 b 590 900 226 738 386 900 b 954 524 793 900 954 738 z "},"Ő":{"ha":1179,"x_min":0,"x_max":0,"o":"m 353 1171 l 419 1108 l 678 1318 l 568 1422 z m 651 1171 l 719 1108 l 976 1318 l 867 1422 z m 50 524 b 590 -17 50 225 290 -17 b 1129 524 889 -17 1129 225 b 590 1064 1129 822 889 1064 b 50 524 290 1064 50 822 z m 954 524 b 590 147 954 310 793 147 b 226 524 386 147 226 310 b 590 900 226 738 386 900 b 954 524 793 900 954 738 z "},"Ō":{"ha":1179,"x_min":0,"x_max":0,"o":"m 357 1149 l 822 1149 l 822 1283 l 357 1283 z m 50 524 b 590 -17 50 225 290 -17 b 1129 524 889 -17 1129 225 b 590 1064 1129 822 889 1064 b 50 524 290 1064 50 822 z m 954 524 b 590 147 954 310 793 147 b 226 524 386 147 226 310 b 590 900 226 738 386 900 b 954 524 793 900 954 738 z "},"Ø":{"ha":1179,"x_min":0,"x_max":0,"o":"m 1129 524 b 1015 857 1129 650 1086 765 l 1121 967 l 1025 1054 l 924 949 b 590 1064 832 1021 717 1064 b 50 524 290 1064 50 822 b 165 190 50 397 93 282 l 60 81 l 156 -7 l 257 99 b 590 -17 349 26 464 -17 b 1129 524 889 -17 1129 225 z m 221 524 b 590 904 221 740 383 904 b 803 838 669 904 743 879 l 288 300 b 221 524 246 363 221 439 z m 958 524 b 590 143 958 307 796 143 b 378 210 510 143 438 168 l 892 746 b 958 524 933 685 958 608 z "},"Ǿ":{"ha":1179,"x_min":0,"x_max":0,"o":"m 481 1174 l 542 1103 l 861 1301 l 754 1426 z m 1129 524 b 1015 857 1129 650 1086 765 l 1121 967 l 1025 1054 l 924 949 b 590 1064 832 1021 717 1064 b 50 524 290 1064 50 822 b 165 190 50 397 93 282 l 60 81 l 156 -7 l 257 99 b 590 -17 349 26 464 -17 b 1129 524 889 -17 1129 225 z m 221 524 b 590 904 221 740 383 904 b 803 838 669 904 743 879 l 288 300 b 221 524 246 363 221 439 z m 958 524 b 590 143 958 307 796 143 b 378 210 510 143 438 168 l 892 746 b 958 524 933 685 958 608 z "},"Õ":{"ha":1179,"x_min":0,"x_max":0,"o":"m 692 1292 b 475 1375 631 1292 565 1375 b 317 1171 383 1375 322 1283 l 425 1157 b 488 1242 429 1214 453 1242 b 703 1158 550 1242 614 1158 b 863 1361 796 1158 857 1249 l 753 1376 b 692 1292 750 1319 726 1292 z m 50 524 b 590 -17 50 225 290 -17 b 1129 524 889 -17 1129 225 b 590 1064 1129 822 889 1064 b 50 524 290 1064 50 822 z m 954 524 b 590 147 954 310 793 147 b 226 524 386 147 226 310 b 590 900 226 738 386 900 b 954 524 793 900 954 738 z "},"Œ":{"ha":1379,"x_min":0,"x_max":0,"o":"m 50 524 b 614 0 50 215 293 0 l 1306 0 l 1306 149 l 889 149 l 889 472 l 1299 472 l 1299 621 l 889 621 l 889 899 l 1304 899 l 1304 1047 l 614 1047 b 50 524 293 1047 50 832 z m 226 524 b 621 899 226 747 392 899 l 717 899 l 717 149 l 619 149 b 226 524 392 149 226 300 z "},"Ŕ":{"ha":863,"x_min":0,"x_max":0,"o":"m 326 1174 l 388 1103 l 707 1301 l 600 1426 z m 288 424 l 326 424 l 638 0 l 843 0 l 513 440 b 758 735 658 478 758 582 b 388 1047 758 933 600 1047 l 114 1047 l 114 0 l 288 0 z m 288 901 l 382 901 b 585 732 493 901 585 851 b 382 560 585 614 493 560 l 288 560 z "},"Ř":{"ha":863,"x_min":0,"x_max":0,"o":"m 465 1110 l 728 1349 l 654 1418 l 465 1292 l 278 1418 l 203 1349 z m 288 424 l 326 424 l 638 0 l 843 0 l 513 440 b 758 735 658 478 758 582 b 388 1047 758 933 600 1047 l 114 1047 l 114 0 l 288 0 z m 288 901 l 382 901 b 585 732 493 901 585 851 b 382 560 585 614 493 560 l 288 560 z "},"Ŗ":{"ha":863,"x_min":0,"x_max":0,"o":"m 288 424 l 326 424 l 638 0 l 843 0 l 513 440 b 758 735 658 478 758 582 b 388 1047 758 933 600 1047 l 114 1047 l 114 0 l 288 0 z m 288 901 l 382 901 b 585 732 493 901 585 851 b 382 560 585 614 493 560 l 288 560 z m 308 -311 l 390 -364 l 585 -140 l 450 -57 z "},"Ś":{"ha":768,"x_min":0,"x_max":0,"o":"m 286 1174 l 347 1103 l 667 1301 l 560 1426 z m 735 315 b 240 776 735 678 240 567 b 385 915 240 861 303 915 b 543 794 467 915 518 864 l 699 860 b 392 1064 656 981 544 1064 b 71 764 203 1064 71 932 b 563 306 71 415 563 536 b 378 132 563 200 478 132 b 164 321 267 132 192 204 l 3 275 b 374 -17 38 99 183 -17 b 735 315 575 -17 735 129 z "},"Š":{"ha":768,"x_min":0,"x_max":0,"o":"m 425 1110 l 688 1349 l 614 1418 l 425 1292 l 238 1418 l 163 1349 z m 735 315 b 240 776 735 678 240 567 b 385 915 240 861 303 915 b 543 794 467 915 518 864 l 699 860 b 392 1064 656 981 544 1064 b 71 764 203 1064 71 932 b 563 306 71 415 563 536 b 378 132 563 200 478 132 b 164 321 267 132 192 204 l 3 275 b 374 -17 38 99 183 -17 b 735 315 575 -17 735 129 z "},"Ş":{"ha":768,"x_min":0,"x_max":0,"o":"m 735 315 b 240 776 735 678 240 567 b 385 915 240 861 303 915 b 543 794 467 915 518 864 l 699 860 b 392 1064 656 981 544 1064 b 71 764 203 1064 71 932 b 563 306 71 415 563 536 b 378 132 563 200 478 132 b 164 321 267 132 192 204 l 3 275 b 374 -17 38 99 183 -17 b 735 315 575 -17 735 129 z m 247 -311 l 329 -364 l 524 -140 l 389 -57 z "},"Ŝ":{"ha":768,"x_min":0,"x_max":0,"o":"m 394 1425 l 132 1186 l 206 1117 l 394 1243 l 582 1117 l 657 1186 z m 735 315 b 240 776 735 678 240 567 b 385 915 240 861 303 915 b 543 794 467 915 518 864 l 699 860 b 392 1064 656 981 544 1064 b 71 764 203 1064 71 932 b 563 306 71 415 563 536 b 378 132 563 200 478 132 b 164 321 267 132 192 204 l 3 275 b 374 -17 38 99 183 -17 b 735 315 575 -17 735 129 z "},"Ș":{"ha":768,"x_min":0,"x_max":0,"o":"m 735 315 b 240 776 735 678 240 567 b 385 915 240 861 303 915 b 543 794 467 915 518 864 l 699 860 b 392 1064 656 981 544 1064 b 71 764 203 1064 71 932 b 563 306 71 415 563 536 b 378 132 563 200 478 132 b 164 321 267 132 192 204 l 3 275 b 374 -17 38 99 183 -17 b 735 315 575 -17 735 129 z m 247 -311 l 329 -364 l 524 -140 l 389 -57 z "},"ẞ":{"ha":944,"x_min":0,"x_max":0,"o":"m 464 567 b 726 358 611 567 726 496 b 465 147 726 225 619 147 l 465 -7 b 896 360 694 -10 896 128 b 686 671 896 510 822 610 l 882 1047 l 114 1047 l 114 0 l 288 0 l 288 900 l 642 900 z "},"Ŧ":{"ha":807,"x_min":0,"x_max":0,"o":"m 138 472 l 317 472 l 317 0 l 490 0 l 490 472 l 669 472 l 669 621 l 490 621 l 490 899 l 757 899 l 757 1047 l 50 1047 l 50 899 l 317 899 l 317 621 l 138 621 z "},"Ť":{"ha":807,"x_min":0,"x_max":0,"o":"m 435 1110 l 697 1349 l 624 1418 l 435 1292 l 247 1418 l 172 1349 z m 757 899 l 757 1047 l 50 1047 l 50 899 l 317 899 l 317 0 l 490 0 l 490 899 z "},"Ţ":{"ha":807,"x_min":0,"x_max":0,"o":"m 757 899 l 757 1047 l 50 1047 l 50 899 l 317 899 l 317 0 l 490 0 l 490 899 z m 269 -311 l 351 -364 l 546 -140 l 411 -57 z "},"Ț":{"ha":807,"x_min":0,"x_max":0,"o":"m 757 899 l 757 1047 l 50 1047 l 50 899 l 317 899 l 317 0 l 490 0 l 490 899 z m 269 -311 l 351 -364 l 546 -140 l 411 -57 z "},"Þ":{"ha":788,"x_min":0,"x_max":0,"o":"m 288 218 l 392 218 b 760 533 604 218 760 335 b 392 849 760 732 604 849 l 288 849 l 288 1047 l 114 1047 l 114 0 l 288 0 z m 288 703 l 385 703 b 585 533 497 703 585 651 b 385 364 585 414 497 364 l 288 364 z "},"Ú":{"ha":999,"x_min":0,"x_max":0,"o":"m 390 1174 l 451 1103 l 771 1301 l 664 1426 z m 500 143 b 274 408 364 143 274 233 l 274 1047 l 100 1047 l 100 406 b 500 -17 100 132 275 -17 b 899 406 724 -17 899 132 l 899 1047 l 725 1047 l 725 408 b 500 143 725 233 635 143 z "},"Ŭ":{"ha":999,"x_min":0,"x_max":0,"o":"m 500 1115 b 746 1346 631 1115 736 1206 l 621 1364 b 500 1239 613 1283 563 1239 b 378 1364 436 1239 386 1283 l 254 1346 b 500 1115 264 1206 368 1115 z m 500 143 b 274 408 364 143 274 233 l 274 1047 l 100 1047 l 100 406 b 500 -17 100 132 275 -17 b 899 406 724 -17 899 132 l 899 1047 l 725 1047 l 725 408 b 500 143 725 233 635 143 z "},"Û":{"ha":999,"x_min":0,"x_max":0,"o":"m 500 1425 l 238 1186 l 311 1117 l 500 1243 l 688 1117 l 763 1186 z m 500 143 b 274 408 364 143 274 233 l 274 1047 l 100 1047 l 100 406 b 500 -17 100 132 275 -17 b 899 406 724 -17 899 132 l 899 1047 l 725 1047 l 725 408 b 500 143 725 233 635 143 z "},"Ü":{"ha":999,"x_min":0,"x_max":0,"o":"m 335 1143 b 435 1243 389 1143 435 1188 b 335 1342 435 1297 389 1342 b 235 1243 281 1342 235 1297 b 335 1143 235 1188 281 1143 z m 664 1143 b 764 1243 719 1143 764 1188 b 664 1342 764 1297 719 1342 b 565 1243 611 1342 565 1297 b 664 1143 565 1188 611 1143 z m 500 143 b 274 408 364 143 274 233 l 274 1047 l 100 1047 l 100 406 b 500 -17 100 132 275 -17 b 899 406 724 -17 899 132 l 899 1047 l 725 1047 l 725 408 b 500 143 725 233 635 143 z "},"Ù":{"ha":999,"x_min":0,"x_max":0,"o":"m 639 1174 l 365 1426 l 258 1301 l 578 1103 z m 500 143 b 274 408 364 143 274 233 l 274 1047 l 100 1047 l 100 406 b 500 -17 100 132 275 -17 b 899 406 724 -17 899 132 l 899 1047 l 725 1047 l 725 408 b 500 143 725 233 635 143 z "},"Ű":{"ha":999,"x_min":0,"x_max":0,"o":"m 263 1171 l 329 1108 l 588 1318 l 478 1422 z m 561 1171 l 629 1108 l 886 1318 l 776 1422 z m 500 143 b 274 408 364 143 274 233 l 274 1047 l 100 1047 l 100 406 b 500 -17 100 132 275 -17 b 899 406 724 -17 899 132 l 899 1047 l 725 1047 l 725 408 b 500 143 725 233 635 143 z "},"Ū":{"ha":999,"x_min":0,"x_max":0,"o":"m 267 1149 l 732 1149 l 732 1283 l 267 1283 z m 500 143 b 274 408 364 143 274 233 l 274 1047 l 100 1047 l 100 406 b 500 -17 100 132 275 -17 b 899 406 724 -17 899 132 l 899 1047 l 725 1047 l 725 408 b 500 143 725 233 635 143 z "},"Ų":{"ha":999,"x_min":0,"x_max":0,"o":"m 539 -364 b 704 -285 597 -364 656 -342 l 643 -196 b 564 -243 618 -226 592 -243 b 508 -186 533 -243 508 -224 b 694 26 508 -132 560 -54 b 899 406 811 97 899 203 l 899 1047 l 725 1047 l 725 408 b 500 143 725 233 635 143 b 274 408 364 143 274 233 l 274 1047 l 100 1047 l 100 406 b 497 -17 100 133 274 -15 b 381 -222 422 -85 381 -153 b 539 -364 381 -315 456 -364 z "},"Ů":{"ha":999,"x_min":0,"x_max":0,"o":"m 694 1263 b 500 1453 694 1368 608 1453 b 304 1263 392 1453 304 1368 b 500 1072 304 1158 392 1072 b 694 1263 607 1072 694 1158 z m 411 1263 b 500 1351 411 1313 451 1351 b 588 1263 549 1351 588 1313 b 500 1176 588 1213 549 1176 b 411 1263 451 1176 411 1213 z m 500 143 b 274 408 364 143 274 233 l 274 1047 l 100 1047 l 100 406 b 500 -17 100 132 275 -17 b 899 406 724 -17 899 132 l 899 1047 l 725 1047 l 725 408 b 500 143 725 233 635 143 z "},"Ũ":{"ha":999,"x_min":0,"x_max":0,"o":"m 601 1292 b 385 1375 540 1292 475 1375 b 226 1171 293 1375 232 1283 l 335 1157 b 397 1242 339 1214 363 1242 b 613 1158 460 1242 524 1158 b 772 1361 706 1158 767 1249 l 663 1376 b 601 1292 660 1319 636 1292 z m 500 143 b 274 408 364 143 274 233 l 274 1047 l 100 1047 l 100 406 b 500 -17 100 132 275 -17 b 899 406 724 -17 899 132 l 899 1047 l 725 1047 l 725 408 b 500 143 725 233 635 143 z "},"Ẃ":{"ha":1492,"x_min":0,"x_max":0,"o":"m 638 1174 l 699 1103 l 1018 1301 l 911 1426 z m 1492 1047 l 1311 1047 l 1028 361 l 750 1065 l 472 361 l 189 1047 l -1 1047 l 461 -39 l 746 668 l 1031 -39 z "},"Ŵ":{"ha":1492,"x_min":0,"x_max":0,"o":"m 746 1425 l 483 1186 l 557 1117 l 746 1243 l 933 1117 l 1008 1186 z m 1492 1047 l 1311 1047 l 1028 361 l 750 1065 l 472 361 l 189 1047 l -1 1047 l 461 -39 l 746 668 l 1031 -39 z "},"Ẁ":{"ha":1492,"x_min":0,"x_max":0,"o":"m 886 1174 l 613 1426 l 506 1301 l 825 1103 z m 1492 1047 l 1311 1047 l 1028 361 l 750 1065 l 472 361 l 189 1047 l -1 1047 l 461 -39 l 746 668 l 1031 -39 z "},"Ẅ":{"ha":1492,"x_min":0,"x_max":0,"o":"m 581 1143 b 681 1243 635 1143 681 1188 b 581 1342 681 1297 635 1342 b 481 1243 526 1342 481 1297 b 581 1143 481 1188 526 1143 z m 910 1143 b 1010 1243 965 1143 1010 1188 b 910 1342 1010 1297 965 1342 b 811 1243 857 1342 811 1297 b 910 1143 811 1188 857 1143 z m 1492 1047 l 1311 1047 l 1028 361 l 750 1065 l 472 361 l 189 1047 l -1 1047 l 461 -39 l 746 668 l 1031 -39 z "},"Ý":{"ha":889,"x_min":0,"x_max":0,"o":"m 336 1174 l 397 1103 l 717 1301 l 610 1426 z m 532 0 l 532 451 l 894 1047 l 701 1047 l 446 618 l 192 1047 l -6 1047 l 357 451 l 357 0 z "},"Ŷ":{"ha":889,"x_min":0,"x_max":0,"o":"m 446 1425 l 183 1186 l 257 1117 l 446 1243 l 633 1117 l 708 1186 z m 532 0 l 532 451 l 894 1047 l 701 1047 l 446 618 l 192 1047 l -6 1047 l 357 451 l 357 0 z "},"Ÿ":{"ha":889,"x_min":0,"x_max":0,"o":"m 281 1143 b 381 1243 335 1143 381 1188 b 281 1342 381 1297 335 1342 b 181 1243 226 1342 181 1297 b 281 1143 181 1188 226 1143 z m 610 1143 b 710 1243 665 1143 710 1188 b 610 1342 710 1297 665 1342 b 511 1243 557 1342 511 1297 b 610 1143 511 1188 557 1143 z m 532 0 l 532 451 l 894 1047 l 701 1047 l 446 618 l 192 1047 l -6 1047 l 357 451 l 357 0 z "},"Ỳ":{"ha":889,"x_min":0,"x_max":0,"o":"m 585 1174 l 311 1426 l 204 1301 l 524 1103 z m 532 0 l 532 451 l 894 1047 l 701 1047 l 446 618 l 192 1047 l -6 1047 l 357 451 l 357 0 z "},"Ź":{"ha":871,"x_min":0,"x_max":0,"o":"m 318 1174 l 379 1103 l 699 1301 l 592 1426 z m 543 899 l 26 0 l 819 0 l 819 149 l 301 149 l 818 1047 l 79 1047 l 79 899 z "},"Ž":{"ha":871,"x_min":0,"x_max":0,"o":"m 457 1110 l 719 1349 l 646 1418 l 457 1292 l 269 1418 l 194 1349 z m 543 899 l 26 0 l 819 0 l 819 149 l 301 149 l 818 1047 l 79 1047 l 79 899 z "},"Ż":{"ha":871,"x_min":0,"x_max":0,"o":"m 426 1146 b 528 1247 482 1146 528 1190 b 426 1349 528 1303 482 1349 b 324 1247 371 1349 324 1303 b 426 1146 324 1190 371 1146 z m 543 899 l 26 0 l 819 0 l 819 149 l 301 149 l 818 1047 l 79 1047 l 79 899 z "},"a":{"ha":872,"x_min":0,"x_max":0,"o":"m 608 675 l 608 576 b 386 692 567 644 478 692 b 50 338 199 692 50 536 b 386 -17 50 139 199 -17 b 608 99 478 -17 567 31 l 608 0 l 772 0 l 772 675 z m 213 338 b 414 547 213 457 300 547 b 617 338 529 547 617 457 b 414 128 617 218 529 128 b 213 338 300 128 213 218 z "},"b":{"ha":872,"x_min":0,"x_max":0,"o":"m 263 1119 l 99 1119 l 99 0 l 263 0 l 263 99 b 486 -17 306 31 394 -17 b 822 338 674 -17 822 139 b 486 692 822 536 674 692 b 263 576 394 692 306 644 z m 660 338 b 457 128 660 218 572 128 b 256 338 343 128 256 218 b 457 547 256 457 343 547 b 660 338 572 547 660 457 z "},"c":{"ha":626,"x_min":0,"x_max":0,"o":"m 404 692 b 50 338 213 692 50 538 b 404 -17 50 138 213 -17 b 565 22 464 -17 518 -3 l 565 194 b 410 132 528 156 474 132 b 207 338 300 132 207 215 b 410 543 207 460 300 543 b 563 482 474 543 525 519 l 563 654 b 404 692 515 679 464 692 z "},"d":{"ha":872,"x_min":0,"x_max":0,"o":"m 610 1119 l 610 576 b 386 692 567 644 478 692 b 50 338 199 692 50 536 b 386 -17 50 139 199 -17 b 610 99 478 -17 567 31 l 610 0 l 774 0 l 774 1119 z m 213 338 b 415 547 213 457 300 547 b 617 338 529 547 617 457 b 415 128 617 218 529 128 b 213 338 300 128 213 218 z "},"e":{"ha":779,"x_min":0,"x_max":0,"o":"m 400 124 b 204 297 303 124 221 190 l 731 297 b 397 692 738 535 597 692 b 50 338 210 692 50 538 b 400 -17 50 138 210 -17 b 710 164 531 -17 644 47 l 589 242 b 400 124 546 167 494 124 z m 397 553 b 568 410 497 553 557 486 l 211 410 b 397 553 238 497 310 553 z "},"f":{"ha":463,"x_min":0,"x_max":0,"o":"m 42 532 l 128 532 l 128 0 l 292 0 l 292 532 l 463 532 l 463 675 l 292 675 l 292 876 b 399 985 292 950 338 985 b 465 972 425 985 442 981 l 465 1118 b 378 1131 444 1125 415 1131 b 128 885 232 1131 128 1032 l 128 675 l 42 675 z "},"g":{"ha":872,"x_min":0,"x_max":0,"o":"m 772 -12 l 772 675 l 608 675 l 608 576 b 386 692 567 644 478 692 b 50 338 199 692 50 536 b 386 -17 50 139 199 -17 b 608 99 478 -17 567 31 l 608 -15 b 413 -224 608 -150 524 -224 b 229 -61 314 -224 238 -165 l 68 -61 b 413 -364 72 -249 233 -364 b 772 -12 607 -364 772 -224 z m 213 338 b 414 547 213 457 300 547 b 617 338 529 547 617 457 b 414 128 617 218 529 128 b 213 338 300 128 213 218 z "},"h":{"ha":808,"x_min":0,"x_max":0,"o":"m 549 403 l 549 0 l 713 0 l 713 447 b 471 692 713 586 624 692 b 263 585 376 692 307 647 l 263 1119 l 99 1119 l 99 0 l 263 0 l 263 369 b 413 546 263 476 322 546 b 549 403 499 546 549 490 z "},"i":{"ha":363,"x_min":0,"x_max":0,"o":"m 181 846 b 283 947 238 846 283 890 b 181 1049 283 1003 238 1049 b 79 947 126 1049 79 1003 b 181 846 79 890 126 846 z m 99 675 l 99 0 l 263 0 l 263 675 z "},"j":{"ha":363,"x_min":0,"x_max":0,"o":"m 181 846 b 283 947 238 846 283 890 b 181 1049 283 1003 238 1049 b 79 947 126 1049 79 1003 b 181 846 79 890 126 846 z m 99 675 l 99 -351 l 263 -351 l 263 675 z "},"k":{"ha":740,"x_min":0,"x_max":0,"o":"m 99 1119 l 99 0 l 263 0 l 263 228 l 325 293 l 550 0 l 743 0 l 442 394 l 711 675 l 515 675 l 263 410 l 263 1119 z "},"l":{"ha":363,"x_min":0,"x_max":0,"o":"m 99 1119 l 99 0 l 263 0 l 263 1119 z "},"m":{"ha":1222,"x_min":0,"x_max":0,"o":"m 463 692 b 263 586 374 692 303 649 l 263 675 l 99 675 l 99 0 l 263 0 l 263 372 b 406 546 263 478 318 546 b 531 406 485 546 531 492 l 531 0 l 694 0 l 694 372 b 838 546 694 478 749 546 b 963 406 917 546 963 492 l 963 0 l 1126 0 l 1126 450 b 888 692 1126 589 1036 692 b 663 581 792 692 713 644 b 463 692 625 647 558 692 z "},"n":{"ha":808,"x_min":0,"x_max":0,"o":"m 549 403 l 549 0 l 713 0 l 713 447 b 471 692 713 586 624 692 b 263 585 376 692 307 647 l 263 675 l 99 675 l 99 0 l 263 0 l 263 369 b 413 546 263 476 322 546 b 549 403 499 546 549 490 z "},"o":{"ha":815,"x_min":0,"x_max":0,"o":"m 50 338 b 407 -17 50 138 213 -17 b 765 338 601 -17 765 138 b 407 692 765 538 601 692 b 50 338 213 692 50 538 z m 206 338 b 407 547 206 457 293 547 b 610 338 522 547 610 457 b 407 128 610 218 522 128 b 206 338 293 128 206 218 z "},"p":{"ha":872,"x_min":0,"x_max":0,"o":"m 263 675 l 99 675 l 99 -351 l 263 -351 l 263 99 b 486 -17 306 31 394 -17 b 822 338 674 -17 822 139 b 486 692 822 536 674 692 b 263 576 394 692 306 644 z m 660 338 b 457 128 660 218 572 128 b 256 338 343 128 256 218 b 457 547 256 457 343 547 b 660 338 572 547 660 457 z "},"q":{"ha":872,"x_min":0,"x_max":0,"o":"m 610 675 l 610 576 b 386 692 567 644 478 692 b 50 338 199 692 50 536 b 386 -17 50 139 199 -17 b 610 99 478 -17 567 31 l 610 -351 l 774 -351 l 774 675 z m 213 338 b 415 547 213 457 300 547 b 617 338 529 547 617 457 b 415 128 617 218 529 128 b 213 338 300 128 213 218 z "},"r":{"ha":540,"x_min":0,"x_max":0,"o":"m 515 674 b 449 688 499 682 481 688 b 263 569 364 688 296 636 l 263 675 l 99 675 l 99 0 l 263 0 l 263 344 b 429 526 263 454 331 526 b 515 507 461 526 489 521 z "},"s":{"ha":589,"x_min":0,"x_max":0,"o":"m 292 -17 b 547 207 428 -17 547 76 b 214 492 547 454 214 371 b 293 564 214 536 250 564 b 390 486 342 564 375 538 l 533 531 b 299 692 504 625 417 692 b 61 481 160 692 61 597 b 392 197 61 239 392 324 b 296 111 392 142 346 111 b 163 219 229 111 183 156 l 21 168 b 292 -17 53 56 165 -17 z "},"t":{"ha":450,"x_min":0,"x_max":0,"o":"m 38 532 l 133 532 l 133 0 l 297 0 l 297 532 l 433 532 l 433 675 l 297 675 l 297 907 l 133 907 l 133 675 l 38 675 z "},"u":{"ha":771,"x_min":0,"x_max":0,"o":"m 385 128 b 251 278 303 128 251 182 l 251 675 l 88 675 l 88 268 b 385 -17 88 99 214 -17 b 683 268 557 -17 683 99 l 683 675 l 519 675 l 519 278 b 385 128 519 182 468 128 z "},"v":{"ha":742,"x_min":0,"x_max":0,"o":"m 371 -39 l 746 675 l 576 675 l 376 269 l 174 675 l -4 675 z "},"w":{"ha":1069,"x_min":0,"x_max":0,"o":"m 1074 675 l 906 675 l 728 274 l 539 700 l 350 274 l 169 675 l -4 675 l 338 -39 l 535 390 l 731 -39 z "},"x":{"ha":767,"x_min":0,"x_max":0,"o":"m 43 675 l 288 354 l 10 0 l 192 0 l 382 244 l 568 0 l 756 0 l 479 360 l 724 675 l 543 675 l 385 471 l 231 675 z "},"y":{"ha":749,"x_min":0,"x_max":0,"o":"m 54 -351 l 225 -351 l 754 675 l 579 675 l 389 297 l 178 675 l -4 675 l 301 126 z "},"z":{"ha":708,"x_min":0,"x_max":0,"o":"m 397 532 l 13 0 l 665 0 l 665 143 l 282 143 l 667 675 l 64 675 l 64 532 z "},"á":{"ha":872,"x_min":0,"x_max":0,"o":"m 325 822 l 400 761 l 628 996 l 499 1097 z m 608 675 l 608 576 b 386 692 567 644 478 692 b 50 338 199 692 50 536 b 386 -17 50 139 199 -17 b 608 99 478 -17 567 31 l 608 0 l 772 0 l 772 675 z m 213 338 b 414 547 213 457 300 547 b 617 338 529 547 617 457 b 414 128 617 218 529 128 b 213 338 300 128 213 218 z "},"ă":{"ha":872,"x_min":0,"x_max":0,"o":"m 431 804 b 663 1039 554 804 653 899 l 538 1056 b 431 928 532 974 486 928 b 322 1056 375 928 328 974 l 199 1039 b 431 804 207 899 306 804 z m 608 675 l 608 576 b 386 692 567 644 478 692 b 50 338 199 692 50 536 b 386 -17 50 139 199 -17 b 608 99 478 -17 567 31 l 608 0 l 772 0 l 772 675 z m 213 338 b 414 547 213 457 300 547 b 617 338 529 547 617 457 b 414 128 617 218 529 128 b 213 338 300 128 213 218 z "},"â":{"ha":872,"x_min":0,"x_max":0,"o":"m 431 1100 l 190 842 l 272 776 l 431 921 l 589 776 l 669 842 z m 608 675 l 608 576 b 386 692 567 644 478 692 b 50 338 199 692 50 536 b 386 -17 50 139 199 -17 b 608 99 478 -17 567 31 l 608 0 l 772 0 l 772 675 z m 213 338 b 414 547 213 457 300 547 b 617 338 529 547 617 457 b 414 128 617 218 529 128 b 213 338 300 128 213 218 z "},"ä":{"ha":872,"x_min":0,"x_max":0,"o":"m 576 846 b 676 944 631 846 676 889 b 576 1044 676 1000 631 1044 b 476 944 522 1044 476 1000 b 576 846 476 889 522 846 z m 285 846 b 383 944 339 846 383 889 b 285 1044 383 1000 339 1044 b 185 944 231 1044 185 1000 b 285 846 185 889 231 846 z m 608 675 l 608 576 b 386 692 567 644 478 692 b 50 338 199 692 50 536 b 386 -17 50 139 199 -17 b 608 99 478 -17 567 31 l 608 0 l 772 0 l 772 675 z m 213 338 b 414 547 213 457 300 547 b 617 338 529 547 617 457 b 414 128 617 218 529 128 b 213 338 300 128 213 218 z "},"à":{"ha":872,"x_min":0,"x_max":0,"o":"m 536 822 l 363 1097 l 233 996 l 461 761 z m 608 675 l 608 576 b 386 692 567 644 478 692 b 50 338 199 692 50 536 b 386 -17 50 139 199 -17 b 608 99 478 -17 567 31 l 608 0 l 772 0 l 772 675 z m 213 338 b 414 547 213 457 300 547 b 617 338 529 547 617 457 b 414 128 617 218 529 128 b 213 338 300 128 213 218 z "},"ā":{"ha":872,"x_min":0,"x_max":0,"o":"m 211 860 l 649 860 l 649 992 l 211 992 z m 608 675 l 608 576 b 386 692 567 644 478 692 b 50 338 199 692 50 536 b 386 -17 50 139 199 -17 b 608 99 478 -17 567 31 l 608 0 l 772 0 l 772 675 z m 213 338 b 414 547 213 457 300 547 b 617 338 529 547 617 457 b 414 128 617 218 529 128 b 213 338 300 128 213 218 z "},"ą":{"ha":872,"x_min":0,"x_max":0,"o":"m 608 675 l 608 576 b 386 692 567 644 478 692 b 50 338 199 692 50 536 b 386 -17 50 139 199 -17 b 608 99 478 -17 567 31 l 608 0 l 610 0 b 476 -222 522 -78 476 -149 b 635 -364 476 -315 553 -364 b 800 -285 694 -364 751 -342 l 740 -196 b 660 -243 714 -226 688 -243 b 604 -187 629 -243 604 -222 b 744 0 604 -142 646 -92 l 772 0 l 772 675 z m 213 338 b 414 547 213 457 300 547 b 617 338 529 547 617 457 b 414 128 617 218 529 128 b 213 338 300 128 213 218 z "},"å":{"ha":872,"x_min":0,"x_max":0,"o":"m 617 964 b 431 1146 617 1064 533 1146 b 243 964 326 1146 243 1064 b 431 782 243 863 326 782 b 617 964 533 782 617 863 z m 347 964 b 431 1046 347 1011 383 1046 b 513 964 476 1046 513 1011 b 431 882 513 915 476 882 b 347 964 383 882 347 915 z m 608 675 l 608 576 b 386 692 567 644 478 692 b 50 338 199 692 50 536 b 386 -17 50 139 199 -17 b 608 99 478 -17 567 31 l 608 0 l 772 0 l 772 675 z m 213 338 b 414 547 213 457 300 547 b 617 338 529 547 617 457 b 414 128 617 218 529 128 b 213 338 300 128 213 218 z "},"ã":{"ha":872,"x_min":0,"x_max":0,"o":"m 335 1038 b 176 833 242 1038 182 946 l 285 818 b 346 904 288 875 313 904 b 525 821 399 904 444 821 b 685 1024 618 821 679 911 l 575 1039 b 513 954 571 982 549 954 b 335 1038 461 954 415 1038 z m 608 675 l 608 576 b 386 692 567 644 478 692 b 50 338 199 692 50 536 b 386 -17 50 139 199 -17 b 608 99 478 -17 567 31 l 608 0 l 772 0 l 772 675 z m 213 338 b 414 547 213 457 300 547 b 617 338 529 547 617 457 b 414 128 617 218 529 128 b 213 338 300 128 213 218 z "},"æ":{"ha":1186,"x_min":0,"x_max":0,"o":"m 118 638 l 118 496 b 329 558 175 533 254 560 b 486 474 408 557 467 526 b 464 396 476 449 468 424 b 321 429 428 414 376 429 b 49 207 172 429 49 346 b 321 -17 49 69 171 -17 b 563 85 415 -17 500 22 b 806 -17 625 22 711 -17 b 1117 164 938 -17 1050 47 l 994 242 b 806 125 951 167 901 125 b 610 301 708 125 625 194 l 1136 301 b 803 692 1143 539 1004 692 b 568 597 713 692 631 656 b 335 693 522 656 443 693 b 118 638 257 693 179 671 z m 804 553 b 974 413 904 553 961 488 l 618 413 b 804 553 646 497 718 553 z m 197 208 b 340 308 197 274 263 308 b 465 274 390 308 436 294 b 494 182 471 240 481 210 b 339 113 464 146 410 113 b 197 208 263 113 197 144 z "},"ǽ":{"ha":1186,"x_min":0,"x_max":0,"o":"m 486 822 l 561 761 l 789 996 l 660 1097 z m 118 638 l 118 496 b 329 558 175 533 254 560 b 486 474 408 557 467 526 b 464 396 476 449 468 424 b 321 429 428 414 376 429 b 49 207 172 429 49 346 b 321 -17 49 69 171 -17 b 563 85 415 -17 500 22 b 806 -17 625 22 711 -17 b 1117 164 938 -17 1050 47 l 994 242 b 806 125 951 167 901 125 b 610 301 708 125 625 194 l 1136 301 b 803 692 1143 539 1004 692 b 568 597 713 692 631 656 b 335 693 522 656 443 693 b 118 638 257 693 179 671 z m 804 553 b 974 413 904 553 961 488 l 618 413 b 804 553 646 497 718 553 z m 197 208 b 340 308 197 274 263 308 b 465 274 390 308 436 294 b 494 182 471 240 481 210 b 339 113 464 146 410 113 b 197 208 263 113 197 144 z "},"ć":{"ha":626,"x_min":0,"x_max":0,"o":"m 265 822 l 340 761 l 568 996 l 439 1097 z m 404 692 b 50 338 213 692 50 538 b 404 -17 50 138 213 -17 b 565 22 464 -17 518 -3 l 565 194 b 410 132 528 156 474 132 b 207 338 300 132 207 215 b 410 543 207 460 300 543 b 563 482 474 543 525 519 l 563 654 b 404 692 515 679 464 692 z "},"č":{"ha":626,"x_min":0,"x_max":0,"o":"m 371 776 l 610 1035 l 529 1100 l 371 956 l 213 1100 l 131 1035 z m 404 692 b 50 338 213 692 50 538 b 404 -17 50 138 213 -17 b 565 22 464 -17 518 -3 l 565 194 b 410 132 528 156 474 132 b 207 338 300 132 207 215 b 410 543 207 460 300 543 b 563 482 474 543 525 519 l 563 654 b 404 692 515 679 464 692 z "},"ç":{"ha":626,"x_min":0,"x_max":0,"o":"m 404 692 b 50 338 213 692 50 538 b 404 -17 50 138 213 -17 b 565 22 464 -17 518 -3 l 565 194 b 410 132 528 156 474 132 b 207 338 300 132 207 215 b 410 543 207 460 300 543 b 563 482 474 543 525 519 l 563 654 b 404 692 515 679 464 692 z m 232 -311 l 314 -364 l 508 -140 l 374 -57 z "},"ĉ":{"ha":626,"x_min":0,"x_max":0,"o":"m 371 1100 l 131 842 l 213 776 l 371 921 l 529 776 l 610 842 z m 404 692 b 50 338 213 692 50 538 b 404 -17 50 138 213 -17 b 565 22 464 -17 518 -3 l 565 194 b 410 132 528 156 474 132 b 207 338 300 132 207 215 b 410 543 207 460 300 543 b 563 482 474 543 525 519 l 563 654 b 404 692 515 679 464 692 z "},"ċ":{"ha":626,"x_min":0,"x_max":0,"o":"m 371 846 b 472 947 426 846 472 890 b 371 1049 472 1003 426 1049 b 268 947 315 1049 268 1003 b 371 846 268 890 315 846 z m 404 692 b 50 338 213 692 50 538 b 404 -17 50 138 213 -17 b 565 22 464 -17 518 -3 l 565 194 b 410 132 528 156 474 132 b 207 338 300 132 207 215 b 410 543 207 460 300 543 b 563 482 474 543 525 519 l 563 654 b 404 692 515 679 464 692 z "},"ď":{"ha":872,"x_min":0,"x_max":0,"o":"m 840 819 l 938 792 l 1065 1093 l 910 1136 z m 610 1119 l 610 576 b 386 692 567 644 478 692 b 50 338 199 692 50 536 b 386 -17 50 139 199 -17 b 610 99 478 -17 567 31 l 610 0 l 774 0 l 774 1119 z m 213 338 b 415 547 213 457 300 547 b 617 338 529 547 617 457 b 415 128 617 218 529 128 b 213 338 300 128 213 218 z "},"đ":{"ha":875,"x_min":0,"x_max":0,"o":"m 610 879 l 610 576 b 386 692 567 644 478 692 b 50 338 199 692 50 536 b 386 -17 50 139 199 -17 b 610 99 478 -17 567 31 l 610 0 l 774 0 l 774 879 l 856 879 l 856 1015 l 774 1015 l 774 1119 l 610 1119 l 610 1015 l 403 1015 l 403 879 z m 213 338 b 415 547 213 457 300 547 b 617 338 529 547 617 457 b 415 128 617 218 529 128 b 213 338 300 128 213 218 z "},"é":{"ha":779,"x_min":0,"x_max":0,"o":"m 285 822 l 360 761 l 588 996 l 458 1097 z m 400 124 b 204 297 303 124 221 190 l 731 297 b 397 692 738 535 597 692 b 50 338 210 692 50 538 b 400 -17 50 138 210 -17 b 710 164 531 -17 644 47 l 589 242 b 400 124 546 167 494 124 z m 397 553 b 568 410 497 553 557 486 l 211 410 b 397 553 238 497 310 553 z "},"ĕ":{"ha":779,"x_min":0,"x_max":0,"o":"m 390 804 b 622 1039 514 804 613 899 l 497 1056 b 390 928 492 974 446 928 b 282 1056 335 928 288 974 l 158 1039 b 390 804 167 899 265 804 z m 400 124 b 204 297 303 124 221 190 l 731 297 b 397 692 738 535 597 692 b 50 338 210 692 50 538 b 400 -17 50 138 210 -17 b 710 164 531 -17 644 47 l 589 242 b 400 124 546 167 494 124 z m 397 553 b 568 410 497 553 557 486 l 211 410 b 397 553 238 497 310 553 z "},"ě":{"ha":779,"x_min":0,"x_max":0,"o":"m 390 776 l 629 1035 l 549 1100 l 390 956 l 232 1100 l 150 1035 z m 400 124 b 204 297 303 124 221 190 l 731 297 b 397 692 738 535 597 692 b 50 338 210 692 50 538 b 400 -17 50 138 210 -17 b 710 164 531 -17 644 47 l 589 242 b 400 124 546 167 494 124 z m 397 553 b 568 410 497 553 557 486 l 211 410 b 397 553 238 497 310 553 z "},"ê":{"ha":779,"x_min":0,"x_max":0,"o":"m 390 1100 l 150 842 l 232 776 l 390 921 l 549 776 l 629 842 z m 400 124 b 204 297 303 124 221 190 l 731 297 b 397 692 738 535 597 692 b 50 338 210 692 50 538 b 400 -17 50 138 210 -17 b 710 164 531 -17 644 47 l 589 242 b 400 124 546 167 494 124 z m 397 553 b 568 410 497 553 557 486 l 211 410 b 397 553 238 497 310 553 z "},"ë":{"ha":779,"x_min":0,"x_max":0,"o":"m 536 846 b 636 944 590 846 636 889 b 536 1044 636 1000 590 1044 b 436 944 482 1044 436 1000 b 536 846 436 889 482 846 z m 244 846 b 343 944 299 846 343 889 b 244 1044 343 1000 299 1044 b 144 944 190 1044 144 1000 b 244 846 144 889 190 846 z m 400 124 b 204 297 303 124 221 190 l 731 297 b 397 692 738 535 597 692 b 50 338 210 692 50 538 b 400 -17 50 138 210 -17 b 710 164 531 -17 644 47 l 589 242 b 400 124 546 167 494 124 z m 397 553 b 568 410 497 553 557 486 l 211 410 b 397 553 238 497 310 553 z "},"ė":{"ha":779,"x_min":0,"x_max":0,"o":"m 390 846 b 492 947 446 846 492 890 b 390 1049 492 1003 446 1049 b 288 947 335 1049 288 1003 b 390 846 288 890 335 846 z m 400 124 b 204 297 303 124 221 190 l 731 297 b 397 692 738 535 597 692 b 50 338 210 692 50 538 b 400 -17 50 138 210 -17 b 710 164 531 -17 644 47 l 589 242 b 400 124 546 167 494 124 z m 397 553 b 568 410 497 553 557 486 l 211 410 b 397 553 238 497 310 553 z "},"è":{"ha":779,"x_min":0,"x_max":0,"o":"m 496 822 l 322 1097 l 193 996 l 421 761 z m 400 124 b 204 297 303 124 221 190 l 731 297 b 397 692 738 535 597 692 b 50 338 210 692 50 538 b 400 -17 50 138 210 -17 b 710 164 531 -17 644 47 l 589 242 b 400 124 546 167 494 124 z m 397 553 b 568 410 497 553 557 486 l 211 410 b 397 553 238 497 310 553 z "},"ē":{"ha":779,"x_min":0,"x_max":0,"o":"m 171 860 l 608 860 l 608 992 l 171 992 z m 400 124 b 204 297 303 124 221 190 l 731 297 b 397 692 738 535 597 692 b 50 338 210 692 50 538 b 400 -17 50 138 210 -17 b 710 164 531 -17 644 47 l 589 242 b 400 124 546 167 494 124 z m 397 553 b 568 410 497 553 557 486 l 211 410 b 397 553 238 497 310 553 z "},"ę":{"ha":779,"x_min":0,"x_max":0,"o":"m 575 -196 b 494 -243 549 -226 522 -243 b 439 -178 463 -243 439 -219 b 601 44 439 -121 489 -40 b 710 164 638 71 681 111 l 588 242 b 399 124 544 167 494 124 b 203 297 301 124 219 190 l 729 297 b 396 692 736 535 597 692 b 50 338 208 692 50 538 b 399 -17 50 138 208 -17 l 408 -17 b 311 -215 340 -90 311 -151 b 469 -364 311 -314 388 -364 b 635 -285 529 -364 586 -342 z m 397 553 b 568 410 497 553 556 486 l 210 410 b 397 553 236 497 310 553 z "},"ð":{"ha":815,"x_min":0,"x_max":0,"o":"m 765 371 b 535 896 765 565 676 746 l 642 940 l 642 1072 l 436 988 b 214 1136 369 1043 294 1093 l 125 1035 b 289 926 185 1001 239 965 l 153 871 l 153 740 l 392 839 b 544 647 457 776 508 711 b 407 685 508 669 460 685 b 50 338 213 685 50 538 b 407 -17 50 138 213 -17 b 765 371 601 -17 765 136 z m 206 338 b 407 547 206 457 293 547 b 610 338 522 547 610 457 b 407 128 610 218 522 128 b 206 338 293 128 206 218 z "},"ğ":{"ha":872,"x_min":0,"x_max":0,"o":"m 431 804 b 663 1039 554 804 653 899 l 538 1056 b 431 928 532 974 486 928 b 322 1056 375 928 328 974 l 199 1039 b 431 804 207 899 306 804 z m 772 -12 l 772 675 l 608 675 l 608 576 b 386 692 567 644 478 692 b 50 338 199 692 50 536 b 386 -17 50 139 199 -17 b 608 99 478 -17 567 31 l 608 -15 b 413 -224 608 -150 524 -224 b 229 -61 314 -224 238 -165 l 68 -61 b 413 -364 72 -249 233 -364 b 772 -12 607 -364 772 -224 z m 213 338 b 414 547 213 457 300 547 b 617 338 529 547 617 457 b 414 128 617 218 529 128 b 213 338 300 128 213 218 z "},"ĝ":{"ha":872,"x_min":0,"x_max":0,"o":"m 431 1100 l 190 842 l 272 776 l 431 921 l 589 776 l 669 842 z m 772 -12 l 772 675 l 608 675 l 608 576 b 386 692 567 644 478 692 b 50 338 199 692 50 536 b 386 -17 50 139 199 -17 b 608 99 478 -17 567 31 l 608 -15 b 413 -224 608 -150 524 -224 b 229 -61 314 -224 238 -165 l 68 -61 b 413 -364 72 -249 233 -364 b 772 -12 607 -364 772 -224 z m 213 338 b 414 547 213 457 300 547 b 617 338 529 547 617 457 b 414 128 617 218 529 128 b 213 338 300 128 213 218 z "},"ģ":{"ha":872,"x_min":0,"x_max":0,"o":"m 586 1057 l 504 1110 l 310 886 l 444 803 z m 772 -12 l 772 675 l 608 675 l 608 576 b 386 692 567 644 478 692 b 50 338 199 692 50 536 b 386 -17 50 139 199 -17 b 608 99 478 -17 567 31 l 608 -15 b 413 -224 608 -150 524 -224 b 229 -61 314 -224 238 -165 l 68 -61 b 413 -364 72 -249 233 -364 b 772 -12 607 -364 772 -224 z m 213 338 b 414 547 213 457 300 547 b 617 338 529 547 617 457 b 414 128 617 218 529 128 b 213 338 300 128 213 218 z "},"ġ":{"ha":872,"x_min":0,"x_max":0,"o":"m 431 846 b 532 947 486 846 532 890 b 431 1049 532 1003 486 1049 b 328 947 375 1049 328 1003 b 431 846 328 890 375 846 z m 772 -12 l 772 675 l 608 675 l 608 576 b 386 692 567 644 478 692 b 50 338 199 692 50 536 b 386 -17 50 139 199 -17 b 608 99 478 -17 567 31 l 608 -15 b 413 -224 608 -150 524 -224 b 229 -61 314 -224 238 -165 l 68 -61 b 413 -364 72 -249 233 -364 b 772 -12 607 -364 772 -224 z m 213 338 b 414 547 213 457 300 547 b 617 338 529 547 617 457 b 414 128 617 218 529 128 b 213 338 300 128 213 218 z "},"ß":{"ha":836,"x_min":0,"x_max":0,"o":"m 388 528 b 624 338 524 528 624 460 b 388 140 624 214 525 140 l 388 -7 b 785 335 597 -10 785 118 b 572 619 785 475 692 574 b 718 858 643 654 718 735 b 419 1136 718 1017 601 1136 b 99 801 221 1136 99 985 l 99 0 l 261 0 l 261 797 b 417 988 261 907 317 988 b 561 844 503 988 561 929 b 388 675 561 744 481 675 z "},"ħ":{"ha":808,"x_min":0,"x_max":0,"o":"m 549 403 l 549 0 l 713 0 l 713 447 b 471 692 713 586 624 692 b 263 585 376 692 307 647 l 263 879 l 474 879 l 474 1015 l 263 1015 l 263 1119 l 99 1119 l 99 1015 l 21 1015 l 21 879 l 99 879 l 99 0 l 263 0 l 263 369 b 413 546 263 476 322 546 b 549 403 499 546 549 490 z "},"ĥ":{"ha":808,"x_min":0,"x_max":0,"o":"m 406 1497 l 143 1258 l 217 1189 l 406 1315 l 593 1189 l 668 1258 z m 549 403 l 549 0 l 713 0 l 713 447 b 471 692 713 586 624 692 b 263 585 376 692 307 647 l 263 1119 l 99 1119 l 99 0 l 263 0 l 263 369 b 413 546 263 476 322 546 b 549 403 499 546 549 490 z "},"ı":{"ha":363,"x_min":0,"x_max":0,"o":"m 99 675 l 99 0 l 263 0 l 263 675 z "},"í":{"ha":363,"x_min":0,"x_max":0,"o":"m 76 822 l 151 761 l 379 996 l 250 1097 z m 99 675 l 99 0 l 263 0 l 263 675 z "},"ĭ":{"ha":363,"x_min":0,"x_max":0,"o":"m 182 804 b 414 1039 306 804 404 899 l 289 1056 b 182 928 283 974 238 928 b 74 1056 126 928 79 974 l -50 1039 b 182 804 -42 899 57 804 z m 99 675 l 99 0 l 263 0 l 263 675 z "},"î":{"ha":363,"x_min":0,"x_max":0,"o":"m 182 1100 l -58 842 l 24 776 l 182 921 l 340 776 l 421 842 z m 99 675 l 99 0 l 263 0 l 263 675 z "},"ï":{"ha":363,"x_min":0,"x_max":0,"o":"m 328 846 b 428 944 382 846 428 889 b 328 1044 428 1000 382 1044 b 228 944 274 1044 228 1000 b 328 846 228 889 274 846 z m 36 846 b 135 944 90 846 135 889 b 36 1044 135 1000 90 1044 b -64 944 -18 1044 -64 1000 b 36 846 -64 889 -18 846 z m 99 675 l 99 0 l 263 0 l 263 675 z "},"ì":{"ha":363,"x_min":0,"x_max":0,"o":"m 286 822 l 113 1097 l -17 996 l 211 761 z m 99 675 l 99 0 l 263 0 l 263 675 z "},"ī":{"ha":363,"x_min":0,"x_max":0,"o":"m -37 860 l 400 860 l 400 992 l -37 992 z m 99 675 l 99 0 l 263 0 l 263 675 z "},"į":{"ha":363,"x_min":0,"x_max":0,"o":"m 181 846 b 283 947 238 846 283 890 b 181 1049 283 1003 238 1049 b 79 947 126 1049 79 1003 b 181 846 79 890 126 846 z m 99 675 l 99 0 l 115 0 b -18 -222 28 -78 -18 -149 b 140 -364 -18 -315 58 -364 b 306 -285 200 -364 257 -342 l 246 -196 b 165 -243 219 -226 193 -243 b 110 -187 135 -243 110 -222 b 250 0 110 -142 151 -92 l 263 0 l 263 675 z "},"ĩ":{"ha":363,"x_min":0,"x_max":0,"o":"m 86 1038 b -72 833 -7 1038 -67 946 l 36 818 b 97 904 39 875 64 904 b 276 821 150 904 196 821 b 436 1024 369 821 431 911 l 326 1039 b 264 954 322 982 300 954 b 86 1038 213 954 167 1038 z m 99 675 l 99 0 l 263 0 l 263 675 z "},"ĳ":{"ha":756,"x_min":0,"x_max":0,"o":"m 181 846 b 283 947 238 846 283 890 b 181 1049 283 1003 238 1049 b 79 947 126 1049 79 1003 b 181 846 79 890 126 846 z m 574 846 b 676 947 631 846 676 890 b 574 1049 676 1003 631 1049 b 472 947 519 1049 472 1003 b 574 846 472 890 519 846 z m 99 675 l 99 0 l 263 0 l 263 675 z m 492 675 l 492 -351 l 656 -351 l 656 675 z "},"ȷ":{"ha":363,"x_min":0,"x_max":0,"o":"m 99 675 l 99 -351 l 263 -351 l 263 675 z "},"ĵ":{"ha":363,"x_min":0,"x_max":0,"o":"m 182 1100 l -58 842 l 24 776 l 182 921 l 340 776 l 421 842 z m 99 675 l 99 -351 l 263 -351 l 263 675 z "},"ķ":{"ha":740,"x_min":0,"x_max":0,"o":"m 99 1119 l 99 0 l 263 0 l 263 228 l 325 293 l 550 0 l 743 0 l 442 394 l 711 675 l 515 675 l 263 410 l 263 1119 z m 275 -311 l 357 -364 l 551 -140 l 417 -57 z "},"ĸ":{"ha":740,"x_min":0,"x_max":0,"o":"m 99 675 l 99 0 l 263 0 l 263 228 l 325 293 l 550 0 l 743 0 l 442 394 l 711 675 l 515 675 l 263 410 l 263 675 z "},"ĺ":{"ha":363,"x_min":0,"x_max":0,"o":"m 72 1246 l 133 1175 l 453 1374 l 346 1499 z m 99 1119 l 99 0 l 263 0 l 263 1119 z "},"ľ":{"ha":363,"x_min":0,"x_max":0,"o":"m 331 819 l 428 792 l 556 1093 l 400 1136 z m 99 1119 l 99 0 l 263 0 l 263 1119 z "},"ļ":{"ha":363,"x_min":0,"x_max":0,"o":"m 99 1119 l 99 0 l 263 0 l 263 1119 z m 47 -311 l 129 -364 l 324 -140 l 189 -57 z "},"ŀ":{"ha":551,"x_min":0,"x_max":0,"o":"m 99 1119 l 99 0 l 263 0 l 263 1119 z m 458 460 b 560 561 514 460 560 504 b 458 663 560 617 514 663 b 356 561 403 663 356 617 b 458 460 356 504 403 460 z "},"ł":{"ha":524,"x_min":0,"x_max":0,"o":"m 35 333 l 179 425 l 179 0 l 343 0 l 343 506 l 488 597 l 488 746 l 343 654 l 343 1119 l 179 1119 l 179 572 l 35 481 z "},"ń":{"ha":808,"x_min":0,"x_max":0,"o":"m 300 822 l 375 761 l 603 996 l 474 1097 z m 549 403 l 549 0 l 713 0 l 713 447 b 471 692 713 586 624 692 b 263 585 376 692 307 647 l 263 675 l 99 675 l 99 0 l 263 0 l 263 369 b 413 546 263 476 322 546 b 549 403 499 546 549 490 z "},"ň":{"ha":808,"x_min":0,"x_max":0,"o":"m 406 776 l 644 1035 l 564 1100 l 406 956 l 247 1100 l 165 1035 z m 549 403 l 549 0 l 713 0 l 713 447 b 471 692 713 586 624 692 b 263 585 376 692 307 647 l 263 675 l 99 675 l 99 0 l 263 0 l 263 369 b 413 546 263 476 322 546 b 549 403 499 546 549 490 z "},"ņ":{"ha":808,"x_min":0,"x_max":0,"o":"m 549 403 l 549 0 l 713 0 l 713 447 b 471 692 713 586 624 692 b 263 585 376 692 307 647 l 263 675 l 99 675 l 99 0 l 263 0 l 263 369 b 413 546 263 476 322 546 b 549 403 499 546 549 490 z m 272 -311 l 354 -364 l 549 -140 l 414 -57 z "},"ñ":{"ha":808,"x_min":0,"x_max":0,"o":"m 310 1038 b 151 833 217 1038 157 946 l 260 818 b 321 904 263 875 288 904 b 500 821 374 904 419 821 b 660 1024 593 821 654 911 l 550 1039 b 488 954 546 982 524 954 b 310 1038 436 954 390 1038 z m 549 403 l 549 0 l 713 0 l 713 447 b 471 692 713 586 624 692 b 263 585 376 692 307 647 l 263 675 l 99 675 l 99 0 l 263 0 l 263 369 b 413 546 263 476 322 546 b 549 403 499 546 549 490 z "},"ŋ":{"ha":808,"x_min":0,"x_max":0,"o":"m 549 403 l 549 -351 l 713 -351 l 713 447 b 471 692 713 586 624 692 b 263 585 376 692 307 647 l 263 675 l 99 675 l 99 0 l 263 0 l 263 369 b 413 546 263 476 322 546 b 549 403 499 546 549 490 z "},"ó":{"ha":815,"x_min":0,"x_max":0,"o":"m 303 822 l 378 761 l 606 996 l 476 1097 z m 50 338 b 407 -17 50 138 213 -17 b 765 338 601 -17 765 138 b 407 692 765 538 601 692 b 50 338 213 692 50 538 z m 206 338 b 407 547 206 457 293 547 b 610 338 522 547 610 457 b 407 128 610 218 522 128 b 206 338 293 128 206 218 z "},"ŏ":{"ha":815,"x_min":0,"x_max":0,"o":"m 408 804 b 640 1039 532 804 631 899 l 515 1056 b 408 928 510 974 464 928 b 300 1056 353 928 306 974 l 176 1039 b 408 804 185 899 283 804 z m 50 338 b 407 -17 50 138 213 -17 b 765 338 601 -17 765 138 b 407 692 765 538 601 692 b 50 338 213 692 50 538 z m 206 338 b 407 547 206 457 293 547 b 610 338 522 547 610 457 b 407 128 610 218 522 128 b 206 338 293 128 206 218 z "},"ô":{"ha":815,"x_min":0,"x_max":0,"o":"m 408 1100 l 168 842 l 250 776 l 408 921 l 567 776 l 647 842 z m 50 338 b 407 -17 50 138 213 -17 b 765 338 601 -17 765 138 b 407 692 765 538 601 692 b 50 338 213 692 50 538 z m 206 338 b 407 547 206 457 293 547 b 610 338 522 547 610 457 b 407 128 610 218 522 128 b 206 338 293 128 206 218 z "},"ö":{"ha":815,"x_min":0,"x_max":0,"o":"m 554 846 b 654 944 608 846 654 889 b 554 1044 654 1000 608 1044 b 454 944 500 1044 454 1000 b 554 846 454 889 500 846 z m 263 846 b 361 944 317 846 361 889 b 263 1044 361 1000 317 1044 b 163 944 208 1044 163 1000 b 263 846 163 889 208 846 z m 50 338 b 407 -17 50 138 213 -17 b 765 338 601 -17 765 138 b 407 692 765 538 601 692 b 50 338 213 692 50 538 z m 206 338 b 407 547 206 457 293 547 b 610 338 522 547 610 457 b 407 128 610 218 522 128 b 206 338 293 128 206 218 z "},"ò":{"ha":815,"x_min":0,"x_max":0,"o":"m 513 822 l 339 1097 l 210 996 l 438 761 z m 50 338 b 407 -17 50 138 213 -17 b 765 338 601 -17 765 138 b 407 692 765 538 601 692 b 50 338 213 692 50 538 z m 206 338 b 407 547 206 457 293 547 b 610 338 522 547 610 457 b 407 128 610 218 522 128 b 206 338 293 128 206 218 z "},"ő":{"ha":815,"x_min":0,"x_max":0,"o":"m 207 819 l 288 769 l 482 1011 l 347 1093 z m 478 819 l 558 769 l 753 1011 l 618 1093 z m 50 338 b 407 -17 50 138 213 -17 b 765 338 601 -17 765 138 b 407 692 765 538 601 692 b 50 338 213 692 50 538 z m 206 338 b 407 547 206 457 293 547 b 610 338 522 547 610 457 b 407 128 610 218 522 128 b 206 338 293 128 206 218 z "},"ō":{"ha":815,"x_min":0,"x_max":0,"o":"m 189 860 l 626 860 l 626 992 l 189 992 z m 50 338 b 407 -17 50 138 213 -17 b 765 338 601 -17 765 138 b 407 692 765 538 601 692 b 50 338 213 692 50 538 z m 206 338 b 407 547 206 457 293 547 b 610 338 522 547 610 457 b 407 128 610 218 522 128 b 206 338 293 128 206 218 z "},"ø":{"ha":815,"x_min":0,"x_max":0,"o":"m 50 338 b 119 126 50 257 76 185 l 44 53 l 119 -21 l 193 53 b 407 -17 253 10 328 -17 b 764 338 603 -17 764 138 b 694 549 764 417 739 490 l 771 622 l 694 696 l 621 622 b 407 692 561 665 488 692 b 50 338 213 692 50 538 z m 200 338 b 407 551 200 461 293 551 b 514 522 446 551 482 542 l 229 225 b 200 338 211 257 200 296 z m 615 338 b 407 124 615 214 524 124 b 301 153 368 124 332 133 l 586 450 b 615 338 604 418 615 379 z "},"ǿ":{"ha":815,"x_min":0,"x_max":0,"o":"m 303 822 l 378 761 l 606 996 l 476 1097 z m 50 338 b 119 126 50 257 76 185 l 44 53 l 119 -21 l 193 53 b 407 -17 253 10 328 -17 b 764 338 603 -17 764 138 b 694 549 764 417 739 490 l 771 622 l 694 696 l 621 622 b 407 692 561 665 488 692 b 50 338 213 692 50 538 z m 200 338 b 407 551 200 461 293 551 b 514 522 446 551 482 542 l 229 225 b 200 338 211 257 200 296 z m 615 338 b 407 124 615 214 524 124 b 301 153 368 124 332 133 l 586 450 b 615 338 604 418 615 379 z "},"õ":{"ha":815,"x_min":0,"x_max":0,"o":"m 313 1038 b 154 833 219 1038 160 946 l 263 818 b 324 904 265 875 290 904 b 503 821 376 904 422 821 b 663 1024 596 821 657 911 l 553 1039 b 490 954 549 982 526 954 b 313 1038 439 954 393 1038 z m 50 338 b 407 -17 50 138 213 -17 b 765 338 601 -17 765 138 b 407 692 765 538 601 692 b 50 338 213 692 50 538 z m 206 338 b 407 547 206 457 293 547 b 610 338 522 547 610 457 b 407 128 610 218 522 128 b 206 338 293 128 206 218 z "},"œ":{"ha":1336,"x_min":0,"x_max":0,"o":"m 407 -17 b 683 128 522 -17 622 40 b 958 -17 746 40 846 -17 b 1267 164 1089 -17 1200 47 l 1144 242 b 956 125 1101 167 1051 125 b 760 301 858 125 775 194 l 1286 301 b 956 692 1293 539 1157 692 b 685 547 844 692 746 636 b 407 692 622 635 522 692 b 50 338 213 692 50 538 b 407 -17 50 138 213 -17 z m 954 553 b 1124 413 1054 553 1111 488 l 768 413 b 954 553 796 497 868 553 z m 206 338 b 407 547 206 457 293 547 b 610 338 522 547 610 457 b 407 128 610 218 522 128 b 206 338 293 128 206 218 z "},"ŕ":{"ha":544,"x_min":0,"x_max":0,"o":"m 210 822 l 285 761 l 513 996 l 383 1097 z m 515 674 b 449 688 499 682 481 688 b 263 569 364 688 296 636 l 263 675 l 99 675 l 99 0 l 263 0 l 263 344 b 429 526 263 454 331 526 b 515 507 461 526 489 521 z "},"ř":{"ha":544,"x_min":0,"x_max":0,"o":"m 315 776 l 554 1035 l 474 1100 l 315 956 l 157 1100 l 75 1035 z m 515 674 b 449 688 499 682 481 688 b 263 569 364 688 296 636 l 263 675 l 99 675 l 99 0 l 263 0 l 263 344 b 429 526 263 454 331 526 b 515 507 461 526 489 521 z "},"ŗ":{"ha":544,"x_min":0,"x_max":0,"o":"m 515 674 b 449 688 499 682 481 688 b 263 569 364 688 296 636 l 263 675 l 99 675 l 99 0 l 263 0 l 263 344 b 429 526 263 454 331 526 b 515 507 461 526 489 521 z m 43 -311 l 125 -364 l 319 -140 l 185 -57 z "},"ś":{"ha":589,"x_min":0,"x_max":0,"o":"m 203 822 l 278 761 l 506 996 l 376 1097 z m 292 -17 b 547 207 428 -17 547 76 b 214 492 547 454 214 371 b 293 564 214 536 250 564 b 390 486 342 564 375 538 l 533 531 b 299 692 504 625 417 692 b 61 481 160 692 61 597 b 392 197 61 239 392 324 b 296 111 392 142 346 111 b 163 219 229 111 183 156 l 21 168 b 292 -17 53 56 165 -17 z "},"š":{"ha":589,"x_min":0,"x_max":0,"o":"m 308 776 l 547 1035 l 467 1100 l 308 956 l 150 1100 l 68 1035 z m 292 -17 b 547 207 428 -17 547 76 b 214 492 547 454 214 371 b 293 564 214 536 250 564 b 390 486 342 564 375 538 l 533 531 b 299 692 504 625 417 692 b 61 481 160 692 61 597 b 392 197 61 239 392 324 b 296 111 392 142 346 111 b 163 219 229 111 183 156 l 21 168 b 292 -17 53 56 165 -17 z "},"ş":{"ha":589,"x_min":0,"x_max":0,"o":"m 292 -17 b 547 207 428 -17 547 76 b 214 492 547 454 214 371 b 293 564 214 536 250 564 b 390 486 342 564 375 538 l 533 531 b 299 692 504 625 417 692 b 61 481 160 692 61 597 b 392 197 61 239 392 324 b 296 111 392 142 346 111 b 163 219 229 111 183 156 l 21 168 b 292 -17 53 56 165 -17 z m 167 -311 l 249 -364 l 443 -140 l 308 -57 z "},"ŝ":{"ha":589,"x_min":0,"x_max":0,"o":"m 308 1100 l 68 842 l 150 776 l 308 921 l 467 776 l 547 842 z m 292 -17 b 547 207 428 -17 547 76 b 214 492 547 454 214 371 b 293 564 214 536 250 564 b 390 486 342 564 375 538 l 533 531 b 299 692 504 625 417 692 b 61 481 160 692 61 597 b 392 197 61 239 392 324 b 296 111 392 142 346 111 b 163 219 229 111 183 156 l 21 168 b 292 -17 53 56 165 -17 z "},"ș":{"ha":589,"x_min":0,"x_max":0,"o":"m 292 -17 b 547 207 428 -17 547 76 b 214 492 547 454 214 371 b 293 564 214 536 250 564 b 390 486 342 564 375 538 l 533 531 b 299 692 504 625 417 692 b 61 481 160 692 61 597 b 392 197 61 239 392 324 b 296 111 392 142 346 111 b 163 219 229 111 183 156 l 21 168 b 292 -17 53 56 165 -17 z m 167 -311 l 249 -364 l 443 -140 l 308 -57 z "},"ŧ":{"ha":442,"x_min":0,"x_max":0,"o":"m 38 429 l 38 292 l 124 292 l 124 0 l 288 0 l 288 292 l 425 292 l 425 429 l 288 429 l 288 538 l 425 538 l 425 675 l 288 675 l 288 907 l 124 907 l 124 675 l 38 675 l 38 538 l 124 538 l 124 429 z "},"ť":{"ha":450,"x_min":0,"x_max":0,"o":"m 379 819 l 476 792 l 604 1093 l 449 1136 z m 38 532 l 133 532 l 133 0 l 297 0 l 297 532 l 433 532 l 433 675 l 297 675 l 297 907 l 133 907 l 133 675 l 38 675 z "},"ţ":{"ha":450,"x_min":0,"x_max":0,"o":"m 38 532 l 133 532 l 133 0 l 297 0 l 297 532 l 433 532 l 433 675 l 297 675 l 297 907 l 133 907 l 133 675 l 38 675 z m 86 -311 l 168 -364 l 363 -140 l 228 -57 z "},"ț":{"ha":450,"x_min":0,"x_max":0,"o":"m 38 532 l 133 532 l 133 0 l 297 0 l 297 532 l 433 532 l 433 675 l 297 675 l 297 907 l 133 907 l 133 675 l 38 675 z m 86 -311 l 168 -364 l 363 -140 l 228 -57 z "},"þ":{"ha":875,"x_min":0,"x_max":0,"o":"m 263 1119 l 99 1119 l 99 -351 l 263 -351 l 263 99 b 488 -17 306 31 394 -17 b 825 338 676 -17 825 139 b 488 692 825 536 676 692 b 263 576 394 692 306 644 z m 661 338 b 458 128 661 218 574 128 b 256 338 343 128 256 218 b 458 547 256 457 343 547 b 661 338 574 547 661 457 z "},"ú":{"ha":771,"x_min":0,"x_max":0,"o":"m 281 822 l 356 761 l 583 996 l 454 1097 z m 385 128 b 251 278 303 128 251 182 l 251 675 l 88 675 l 88 268 b 385 -17 88 99 214 -17 b 683 268 557 -17 683 99 l 683 675 l 519 675 l 519 278 b 385 128 519 182 468 128 z "},"ŭ":{"ha":771,"x_min":0,"x_max":0,"o":"m 386 804 b 618 1039 510 804 608 899 l 493 1056 b 386 928 488 974 442 928 b 278 1056 331 928 283 974 l 154 1039 b 386 804 163 899 261 804 z m 385 128 b 251 278 303 128 251 182 l 251 675 l 88 675 l 88 268 b 385 -17 88 99 214 -17 b 683 268 557 -17 683 99 l 683 675 l 519 675 l 519 278 b 385 128 519 182 468 128 z "},"û":{"ha":771,"x_min":0,"x_max":0,"o":"m 386 1100 l 146 842 l 228 776 l 386 921 l 544 776 l 625 842 z m 385 128 b 251 278 303 128 251 182 l 251 675 l 88 675 l 88 268 b 385 -17 88 99 214 -17 b 683 268 557 -17 683 99 l 683 675 l 519 675 l 519 278 b 385 128 519 182 468 128 z "},"ü":{"ha":771,"x_min":0,"x_max":0,"o":"m 532 846 b 632 944 586 846 632 889 b 532 1044 632 1000 586 1044 b 432 944 478 1044 432 1000 b 532 846 432 889 478 846 z m 240 846 b 339 944 294 846 339 889 b 240 1044 339 1000 294 1044 b 140 944 186 1044 140 1000 b 240 846 140 889 186 846 z m 385 128 b 251 278 303 128 251 182 l 251 675 l 88 675 l 88 268 b 385 -17 88 99 214 -17 b 683 268 557 -17 683 99 l 683 675 l 519 675 l 519 278 b 385 128 519 182 468 128 z "},"ù":{"ha":771,"x_min":0,"x_max":0,"o":"m 490 822 l 317 1097 l 188 996 l 415 761 z m 385 128 b 251 278 303 128 251 182 l 251 675 l 88 675 l 88 268 b 385 -17 88 99 214 -17 b 683 268 557 -17 683 99 l 683 675 l 519 675 l 519 278 b 385 128 519 182 468 128 z "},"ű":{"ha":771,"x_min":0,"x_max":0,"o":"m 185 819 l 265 769 l 460 1011 l 325 1093 z m 456 819 l 536 769 l 731 1011 l 596 1093 z m 385 128 b 251 278 303 128 251 182 l 251 675 l 88 675 l 88 268 b 385 -17 88 99 214 -17 b 683 268 557 -17 683 99 l 683 675 l 519 675 l 519 278 b 385 128 519 182 468 128 z "},"ū":{"ha":771,"x_min":0,"x_max":0,"o":"m 167 860 l 604 860 l 604 992 l 167 992 z m 385 128 b 251 278 303 128 251 182 l 251 675 l 88 675 l 88 268 b 385 -17 88 99 214 -17 b 683 268 557 -17 683 99 l 683 675 l 519 675 l 519 278 b 385 128 519 182 468 128 z "},"ų":{"ha":771,"x_min":0,"x_max":0,"o":"m 393 -187 b 550 18 393 -136 444 -69 b 683 268 638 89 683 158 l 683 675 l 519 675 l 519 279 b 385 129 519 183 468 129 b 251 279 303 129 251 183 l 251 675 l 88 675 l 88 268 b 376 -17 88 101 210 -12 b 265 -219 301 -94 265 -154 b 426 -364 265 -312 342 -364 b 589 -285 483 -364 540 -342 l 529 -196 b 450 -243 503 -226 478 -243 b 393 -187 419 -243 393 -222 z "},"ů":{"ha":771,"x_min":0,"x_max":0,"o":"m 572 964 b 386 1146 572 1064 489 1146 b 199 964 282 1146 199 1064 b 386 782 199 863 282 782 b 572 964 489 782 572 863 z m 303 964 b 386 1046 303 1011 339 1046 b 468 964 432 1046 468 1011 b 386 882 468 915 432 882 b 303 964 339 882 303 915 z m 385 128 b 251 278 303 128 251 182 l 251 675 l 88 675 l 88 268 b 385 -17 88 99 214 -17 b 683 268 557 -17 683 99 l 683 675 l 519 675 l 519 278 b 385 128 519 182 468 128 z "},"ũ":{"ha":771,"x_min":0,"x_max":0,"o":"m 290 1038 b 132 833 197 1038 138 946 l 240 818 b 301 904 243 875 268 904 b 481 821 354 904 400 821 b 640 1024 574 821 635 911 l 531 1039 b 468 954 526 982 504 954 b 290 1038 417 954 371 1038 z m 385 128 b 251 278 303 128 251 182 l 251 675 l 88 675 l 88 268 b 385 -17 88 99 214 -17 b 683 268 557 -17 683 99 l 683 675 l 519 675 l 519 278 b 385 128 519 182 468 128 z "},"ẃ":{"ha":1069,"x_min":0,"x_max":0,"o":"m 433 822 l 508 761 l 736 996 l 607 1097 z m 1074 675 l 906 675 l 728 274 l 539 700 l 350 274 l 169 675 l -4 675 l 338 -39 l 535 390 l 731 -39 z "},"ŵ":{"ha":1069,"x_min":0,"x_max":0,"o":"m 539 1100 l 299 842 l 381 776 l 539 921 l 697 776 l 778 842 z m 1074 675 l 906 675 l 728 274 l 539 700 l 350 274 l 169 675 l -4 675 l 338 -39 l 535 390 l 731 -39 z "},"ẁ":{"ha":1069,"x_min":0,"x_max":0,"o":"m 643 822 l 469 1097 l 340 996 l 568 761 z m 1074 675 l 906 675 l 728 274 l 539 700 l 350 274 l 169 675 l -4 675 l 338 -39 l 535 390 l 731 -39 z "},"ẅ":{"ha":1069,"x_min":0,"x_max":0,"o":"m 685 846 b 785 944 739 846 785 889 b 685 1044 785 1000 739 1044 b 585 944 631 1044 585 1000 b 685 846 585 889 631 846 z m 393 846 b 492 944 447 846 492 889 b 393 1044 492 1000 447 1044 b 293 944 339 1044 293 1000 b 393 846 293 889 339 846 z m 1074 675 l 906 675 l 728 274 l 539 700 l 350 274 l 169 675 l -4 675 l 338 -39 l 535 390 l 731 -39 z "},"ý":{"ha":749,"x_min":0,"x_max":0,"o":"m 269 822 l 344 761 l 572 996 l 443 1097 z m 54 -351 l 225 -351 l 754 675 l 579 675 l 389 297 l 178 675 l -4 675 l 301 126 z "},"ŷ":{"ha":749,"x_min":0,"x_max":0,"o":"m 375 1100 l 135 842 l 217 776 l 375 921 l 533 776 l 614 842 z m 54 -351 l 225 -351 l 754 675 l 579 675 l 389 297 l 178 675 l -4 675 l 301 126 z "},"ÿ":{"ha":749,"x_min":0,"x_max":0,"o":"m 521 846 b 621 944 575 846 621 889 b 521 1044 621 1000 575 1044 b 421 944 467 1044 421 1000 b 521 846 421 889 467 846 z m 229 846 b 328 944 283 846 328 889 b 229 1044 328 1000 283 1044 b 129 944 175 1044 129 1000 b 229 846 129 889 175 846 z m 54 -351 l 225 -351 l 754 675 l 579 675 l 389 297 l 178 675 l -4 675 l 301 126 z "},"ỳ":{"ha":749,"x_min":0,"x_max":0,"o":"m 481 822 l 307 1097 l 178 996 l 406 761 z m 54 -351 l 225 -351 l 754 675 l 579 675 l 389 297 l 178 675 l -4 675 l 301 126 z "},"ź":{"ha":708,"x_min":0,"x_max":0,"o":"m 250 822 l 325 761 l 553 996 l 424 1097 z m 397 532 l 13 0 l 665 0 l 665 143 l 282 143 l 667 675 l 64 675 l 64 532 z "},"ž":{"ha":708,"x_min":0,"x_max":0,"o":"m 356 776 l 594 1035 l 514 1100 l 356 956 l 197 1100 l 115 1035 z m 397 532 l 13 0 l 665 0 l 665 143 l 282 143 l 667 675 l 64 675 l 64 532 z "},"ż":{"ha":708,"x_min":0,"x_max":0,"o":"m 356 846 b 457 947 411 846 457 890 b 356 1049 457 1003 411 1049 b 253 947 300 1049 253 1003 b 356 846 253 890 300 846 z m 397 532 l 13 0 l 665 0 l 665 143 l 282 143 l 667 675 l 64 675 l 64 532 z "},"º":{"ha":600,"x_min":0,"x_max":0,"o":"m 32 796 b 300 533 32 646 153 533 b 568 796 446 533 568 646 b 300 1060 568 947 446 1060 b 32 796 153 1060 32 947 z m 165 796 b 300 936 165 876 224 936 b 435 796 375 936 435 876 b 300 656 435 717 375 656 b 165 796 224 656 165 717 z m 51 301 l 549 301 l 549 426 l 51 426 z "},"ª":{"ha":649,"x_min":0,"x_max":0,"o":"m 444 1047 l 444 979 b 279 1060 415 1024 351 1060 b 32 796 140 1060 32 944 b 279 533 32 647 140 533 b 444 614 351 533 415 568 l 444 544 l 583 544 l 583 1047 z m 171 796 b 311 940 171 878 231 940 b 449 796 390 940 449 878 b 311 651 449 714 390 651 b 171 796 231 651 171 714 z m 51 301 l 583 301 l 583 426 l 51 426 z "},"&":{"ha":972,"x_min":0,"x_max":0,"o":"m 678 819 b 417 1063 678 967 561 1063 b 151 817 265 1063 151 954 b 243 613 151 729 199 663 l 265 586 b 35 276 156 519 35 433 b 353 -18 35 115 154 -18 b 667 135 474 -18 568 40 l 786 0 l 992 0 l 774 244 b 817 292 788 260 803 275 l 965 456 l 858 554 l 699 376 b 678 353 692 368 685 361 l 483 572 l 506 586 b 678 819 600 643 678 717 z m 379 689 b 307 821 344 731 307 768 b 415 929 307 882 351 929 b 525 815 481 929 525 885 b 418 678 525 765 486 718 l 399 667 z m 193 293 b 333 479 193 381 256 432 l 351 490 l 574 240 b 358 126 499 167 436 126 b 193 293 256 126 193 200 z "},"`":{"ha":801,"x_min":0,"x_max":0,"o":"m 553 822 l 379 1097 l 250 996 l 478 761 z "},"´":{"ha":801,"x_min":0,"x_max":0,"o":"m 250 822 l 325 761 l 553 996 l 424 1097 z "},"ˆ":{"ha":801,"x_min":0,"x_max":0,"o":"m 401 1100 l 161 842 l 243 776 l 401 921 l 560 776 l 640 842 z "},"˜":{"ha":801,"x_min":0,"x_max":0,"o":"m 306 1038 b 147 833 213 1038 153 946 l 256 818 b 317 904 258 875 283 904 b 496 821 369 904 415 821 b 656 1024 589 821 650 911 l 546 1039 b 483 954 542 982 519 954 b 306 1038 432 954 386 1038 z "},"¯":{"ha":801,"x_min":0,"x_max":0,"o":"m 182 860 l 619 860 l 619 992 l 182 992 z "},"˘":{"ha":801,"x_min":0,"x_max":0,"o":"m 401 804 b 633 1039 525 804 624 899 l 508 1056 b 401 928 503 974 457 928 b 293 1056 346 928 299 974 l 169 1039 b 401 804 178 899 276 804 z "},"˙":{"ha":801,"x_min":0,"x_max":0,"o":"m 401 846 b 503 947 457 846 503 890 b 401 1049 503 1003 457 1049 b 299 947 346 1049 299 1003 b 401 846 299 890 346 846 z "},"¨":{"ha":801,"x_min":0,"x_max":0,"o":"m 547 846 b 647 944 601 846 647 889 b 547 1044 647 1000 601 1044 b 447 944 493 1044 447 1000 b 547 846 447 889 493 846 z m 256 846 b 354 944 310 846 354 889 b 256 1044 354 1000 310 1044 b 156 944 201 1044 156 1000 b 256 846 156 889 201 846 z "},"˚":{"ha":801,"x_min":0,"x_max":0,"o":"m 588 964 b 401 1146 588 1064 504 1146 b 214 964 297 1146 214 1064 b 401 782 214 863 297 782 b 588 964 504 782 588 863 z m 318 964 b 401 1046 318 1011 354 1046 b 483 964 447 1046 483 1011 b 401 882 483 915 447 882 b 318 964 354 882 318 915 z "},"˝":{"ha":801,"x_min":0,"x_max":0,"o":"m 128 819 l 208 769 l 403 1011 l 268 1093 z m 399 819 l 479 769 l 674 1011 l 539 1093 z "},"ˇ":{"ha":801,"x_min":0,"x_max":0,"o":"m 401 776 l 640 1035 l 560 1100 l 401 956 l 243 1100 l 161 1035 z "},"":{"ha":801,"x_min":0,"x_max":0,"o":"m 264 -311 l 346 -364 l 540 -140 l 406 -57 z "},"¸":{"ha":801,"x_min":0,"x_max":0,"o":"m 264 -311 l 346 -364 l 540 -140 l 406 -57 z "},"˛":{"ha":801,"x_min":0,"x_max":0,"o":"m 443 13 b 296 -222 347 -71 296 -144 b 454 -364 296 -315 372 -364 b 619 -285 514 -364 571 -342 l 560 -196 b 479 -243 533 -226 507 -243 b 424 -187 449 -243 424 -222 b 564 0 424 -142 465 -92 z "},".":{"ha":392,"x_min":0,"x_max":0,"o":"m 85 100 b 196 -10 85 38 135 -10 b 307 100 257 -10 307 38 b 196 211 307 164 257 211 b 85 100 135 211 85 164 z "},",":{"ha":392,"x_min":0,"x_max":0,"o":"m 163 229 l 42 -178 l 143 -211 l 339 169 z "},":":{"ha":392,"x_min":0,"x_max":0,"o":"m 85 529 b 196 419 85 467 135 419 b 307 529 257 419 307 467 b 196 640 307 593 257 640 b 85 529 135 640 85 593 z m 85 100 b 196 -10 85 38 135 -10 b 307 100 257 -10 307 38 b 196 211 307 164 257 211 b 85 100 135 211 85 164 z "},";":{"ha":392,"x_min":0,"x_max":0,"o":"m 85 529 b 196 419 85 467 135 419 b 307 529 257 419 307 467 b 196 640 307 593 257 640 b 85 529 135 640 85 593 z m 163 229 l 42 -178 l 143 -211 l 339 169 z "},"…":{"ha":1172,"x_min":0,"x_max":0,"o":"m 865 100 b 976 -10 865 38 915 -10 b 1088 100 1038 -10 1088 38 b 976 211 1088 164 1038 211 b 865 100 915 211 865 164 z m 475 100 b 586 -10 475 38 525 -10 b 697 100 647 -10 697 38 b 586 211 697 164 647 211 b 475 100 525 211 475 164 z m 85 100 b 196 -10 85 38 135 -10 b 307 100 257 -10 307 38 b 196 211 307 164 257 211 b 85 100 135 211 85 164 z "},"!":{"ha":392,"x_min":0,"x_max":0,"o":"m 111 306 l 283 306 l 283 1047 l 111 1047 z m 85 100 b 196 -10 85 38 135 -10 b 307 100 257 -10 307 38 b 196 211 307 164 257 211 b 85 100 135 211 85 164 z "},"¡":{"ha":392,"x_min":0,"x_max":0,"o":"m 307 604 b 196 714 307 667 257 714 b 85 604 135 714 85 667 b 196 493 85 540 135 493 b 307 604 257 493 307 540 z m 281 399 l 108 399 l 108 -343 l 281 -343 z "},"?":{"ha":682,"x_min":0,"x_max":0,"o":"m 263 482 b 617 824 263 629 617 557 b 349 1064 617 961 504 1064 b 67 783 188 1064 61 949 l 228 783 b 347 922 222 872 275 922 b 453 822 413 922 453 878 b 103 476 453 664 103 732 b 342 264 103 350 211 264 b 583 489 471 264 581 357 l 429 489 b 344 401 426 432 396 401 b 263 482 301 401 263 431 z m 232 96 b 339 -10 232 36 279 -10 b 444 96 397 -10 444 36 b 339 203 444 157 397 203 b 232 96 279 203 232 157 z "},"¿":{"ha":682,"x_min":0,"x_max":0,"o":"m 450 611 b 343 717 450 671 403 717 b 238 611 285 717 238 671 b 343 504 238 550 285 504 b 450 611 403 504 450 550 z m 419 225 b 65 -117 419 78 65 150 b 333 -357 65 -254 178 -357 b 615 -76 494 -357 621 -242 l 454 -76 b 335 -215 460 -165 407 -215 b 229 -115 269 -215 229 -171 b 579 231 229 43 579 -25 b 340 443 579 357 471 443 b 99 218 211 443 101 350 l 253 218 b 338 306 256 275 286 306 b 419 225 381 306 419 276 z "},"‘":{"ha":392,"x_min":0,"x_max":0,"o":"m 229 621 l 350 1028 l 249 1061 l 53 681 z "},"’":{"ha":392,"x_min":0,"x_max":0,"o":"m 163 1063 l 42 656 l 143 622 l 339 1003 z "},"“":{"ha":696,"x_min":0,"x_max":0,"o":"m 533 621 l 654 1028 l 553 1061 l 357 681 z m 229 621 l 350 1028 l 249 1061 l 53 681 z "},"”":{"ha":696,"x_min":0,"x_max":0,"o":"m 163 1063 l 42 656 l 143 622 l 339 1003 z m 467 1063 l 346 656 l 447 622 l 643 1003 z "},"‚":{"ha":392,"x_min":0,"x_max":0,"o":"m 163 256 l 42 -151 l 143 -185 l 339 196 z "},"„":{"ha":696,"x_min":0,"x_max":0,"o":"m 163 256 l 42 -151 l 143 -185 l 339 196 z m 467 256 l 346 -151 l 447 -185 l 643 196 z "},"‹":{"ha":449,"x_min":0,"x_max":0,"o":"m 56 361 l 275 56 l 390 135 l 233 361 l 390 586 l 275 667 z "},"›":{"ha":449,"x_min":0,"x_max":0,"o":"m 393 361 l 174 667 l 58 586 l 215 361 l 58 135 l 174 56 z "},"«":{"ha":731,"x_min":0,"x_max":0,"o":"m 56 361 l 275 56 l 390 135 l 233 361 l 390 586 l 275 667 z m 338 361 l 557 56 l 672 135 l 515 361 l 672 586 l 557 667 z "},"»":{"ha":731,"x_min":0,"x_max":0,"o":"m 675 361 l 456 667 l 340 586 l 497 361 l 340 135 l 456 56 z m 393 361 l 174 667 l 58 586 l 215 361 l 58 135 l 174 56 z "},"/":{"ha":722,"x_min":0,"x_max":0,"o":"m 550 1119 l 7 -208 l 172 -208 l 715 1119 z "},"\\":{"ha":722,"x_min":0,"x_max":0,"o":"m 172 1119 l 7 1119 l 550 -208 l 715 -208 z "},"|":{"ha":413,"x_min":0,"x_max":0,"o":"m 128 1119 l 128 -208 l 285 -208 l 285 1119 z "},"·":{"ha":392,"x_min":0,"x_max":0,"o":"m 85 361 b 196 251 85 299 135 251 b 307 361 257 251 307 299 b 196 472 307 425 257 472 b 85 361 135 472 85 425 z "},"•":{"ha":696,"x_min":0,"x_max":0,"o":"m 349 624 b 86 361 206 624 86 506 b 349 100 86 217 206 100 b 610 361 492 100 610 217 b 349 624 610 506 492 624 z "},"-":{"ha":526,"x_min":0,"x_max":0,"o":"m 86 442 l 86 281 l 440 281 l 440 442 z "},"–":{"ha":776,"x_min":0,"x_max":0,"o":"m 86 439 l 86 289 l 690 289 l 690 439 z "},"—":{"ha":1268,"x_min":0,"x_max":0,"o":"m 86 439 l 86 289 l 1182 289 l 1182 439 z "},"(":{"ha":514,"x_min":0,"x_max":0,"o":"m 79 456 b 350 -232 79 171 201 -42 l 479 -150 b 240 456 326 46 240 224 b 479 1061 240 689 326 867 l 350 1144 b 79 456 201 954 79 736 z "},")":{"ha":514,"x_min":0,"x_max":0,"o":"m 435 456 b 164 1144 435 736 313 954 l 35 1061 b 274 456 188 867 274 689 b 35 -150 274 224 188 46 l 164 -232 b 435 456 313 -42 435 171 z "},"[":{"ha":508,"x_min":0,"x_max":0,"o":"m 250 989 l 483 989 l 483 1119 l 93 1119 l 93 -208 l 483 -208 l 483 -78 l 250 -78 z "},"]":{"ha":508,"x_min":0,"x_max":0,"o":"m 258 989 l 258 -78 l 25 -78 l 25 -208 l 415 -208 l 415 1119 l 25 1119 l 25 989 z "},"{":{"ha":610,"x_min":0,"x_max":0,"o":"m 38 385 l 106 385 b 215 263 165 385 215 354 l 215 -8 b 407 -208 215 -142 282 -208 l 583 -208 l 583 -78 l 447 -78 b 369 18 396 -78 369 -50 l 369 281 b 229 456 369 397 300 450 b 369 631 300 461 369 514 l 369 893 b 447 989 369 961 396 989 l 583 989 l 583 1119 l 407 1119 b 215 919 282 1119 215 1053 l 215 649 b 106 526 215 557 165 526 l 38 526 z "},"}":{"ha":610,"x_min":0,"x_max":0,"o":"m 572 385 l 572 526 l 504 526 b 394 649 444 526 394 557 l 394 919 b 203 1119 394 1053 328 1119 l 26 1119 l 26 989 l 163 989 b 240 893 214 989 240 961 l 240 631 b 381 456 240 514 310 461 b 240 281 310 450 240 397 l 240 18 b 163 -78 240 -50 214 -78 l 26 -78 l 26 -208 l 203 -208 b 394 -8 328 -208 394 -142 l 394 263 b 504 385 394 354 444 385 z "},"*":{"ha":717,"x_min":0,"x_max":0,"o":"m 306 414 l 413 414 l 413 638 l 610 526 l 664 618 l 467 731 l 664 844 l 610 938 l 413 825 l 413 1047 l 306 1047 l 306 825 l 108 938 l 53 844 l 251 731 l 53 618 l 108 526 l 306 638 z "},"†":{"ha":593,"x_min":0,"x_max":0,"o":"m 232 413 l 361 413 l 361 738 l 542 738 l 542 867 l 361 867 l 361 1047 l 232 1047 l 232 867 l 51 867 l 51 738 l 232 738 z "},"‡":{"ha":593,"x_min":0,"x_max":0,"o":"m 232 413 l 361 413 l 361 543 l 542 543 l 542 667 l 361 667 l 361 793 l 542 793 l 542 918 l 361 918 l 361 1047 l 232 1047 l 232 918 l 51 918 l 51 793 l 232 793 l 232 667 l 51 667 l 51 543 l 232 543 z "},"§":{"ha":772,"x_min":0,"x_max":0,"o":"m 97 343 b 171 153 97 258 126 199 b 350 39 221 100 290 68 b 510 -111 439 -1 510 -37 b 383 -233 510 -187 456 -233 b 247 -133 319 -233 271 -194 l 117 -207 b 379 -378 154 -304 257 -378 b 661 -114 540 -378 661 -268 b 517 107 661 -4 597 61 b 674 343 611 149 674 238 b 594 539 674 431 642 492 b 421 647 546 588 481 618 b 261 797 336 688 261 722 b 389 919 261 874 315 919 b 525 819 451 919 500 881 l 654 893 b 392 1064 617 990 514 1064 b 110 800 231 1064 110 954 b 254 579 110 690 174 625 b 97 343 160 538 97 449 z m 385 206 b 288 244 347 206 311 221 b 247 343 263 269 247 303 b 386 481 247 422 310 481 b 485 442 425 481 460 465 b 524 343 508 417 524 383 b 385 206 524 264 463 206 z "},"¶":{"ha":849,"x_min":0,"x_max":0,"o":"m 535 -351 l 667 -351 l 667 913 l 825 913 l 825 1047 l 535 1047 z m 306 -351 l 439 -351 l 439 1047 l 306 1047 b 14 790 175 1047 14 972 b 306 529 14 607 175 529 z "},"^":{"ha":813,"x_min":0,"x_max":0,"o":"m 335 1047 l 61 626 l 231 626 l 406 906 l 582 626 l 751 626 l 478 1047 z "},"~":{"ha":714,"x_min":0,"x_max":0,"o":"m 443 425 b 253 514 385 425 350 514 b 86 288 154 514 86 424 l 210 288 b 269 379 210 347 233 379 b 460 289 329 379 364 289 b 628 515 558 289 628 379 l 504 515 b 443 425 504 456 479 425 z "},"_":{"ha":635,"x_min":0,"x_max":0,"o":"m 35 -110 l 35 -253 l 600 -253 l 600 -110 z "},"'":{"ha":296,"x_min":0,"x_max":0,"o":"m 90 624 l 206 624 l 240 1047 l 56 1047 z "},"\"":{"ha":574,"x_min":0,"x_max":0,"o":"m 90 624 l 206 624 l 240 1047 l 56 1047 z m 368 624 l 483 624 l 518 1047 l 333 1047 z "},"@":{"ha":1444,"x_min":0,"x_max":0,"o":"m 681 25 b 900 146 771 25 864 74 b 1090 36 928 89 986 36 b 1394 436 1251 36 1394 179 b 738 1046 1394 789 1110 1046 b 50 356 349 1046 50 739 b 754 -326 50 -54 388 -326 b 1178 -200 922 -326 1074 -272 l 1111 -83 b 754 -190 1017 -146 893 -190 b 192 357 479 -190 192 13 b 738 910 192 679 433 910 b 1253 429 1029 910 1253 722 b 1111 172 1253 264 1183 172 b 1043 249 1072 172 1043 193 l 1043 660 l 890 660 l 890 564 b 681 675 856 629 767 675 b 375 351 507 675 375 532 b 681 25 375 171 507 25 z m 889 350 b 713 164 889 244 813 164 b 531 350 608 164 531 244 b 713 536 531 457 608 536 b 889 350 813 536 889 457 z "},"©":{"ha":1175,"x_min":0,"x_max":0,"o":"m 50 524 b 588 -17 50 225 290 -17 b 1125 524 885 -17 1125 225 b 588 1064 1125 822 885 1064 b 50 524 290 1064 50 822 z m 1033 524 b 588 68 1033 269 836 68 b 142 524 338 68 142 269 b 588 979 142 778 339 979 b 1033 524 836 979 1033 778 z m 606 843 b 281 524 422 843 281 700 b 606 204 281 346 422 204 b 779 250 664 204 726 219 l 779 392 b 611 329 736 354 675 329 b 414 524 497 329 414 413 b 611 718 414 633 497 718 b 779 656 675 718 736 694 l 779 797 b 606 843 726 828 664 843 z "},"®":{"ha":800,"x_min":0,"x_max":0,"o":"m 401 1064 b 69 732 219 1064 69 914 b 401 401 69 550 219 401 b 732 732 583 401 732 550 b 401 1064 732 914 583 1064 z m 401 469 b 138 732 257 469 138 588 b 401 996 138 876 257 996 b 664 732 546 996 664 876 b 401 469 664 588 546 469 z m 360 683 l 379 683 l 443 572 l 538 572 l 461 696 b 531 793 499 708 531 742 b 408 903 531 861 482 903 l 278 903 l 278 572 l 360 572 z m 360 831 l 401 831 b 450 789 432 831 450 814 b 401 750 450 767 432 750 l 360 750 z "},"™":{"ha":978,"x_min":0,"x_max":0,"o":"m 682 557 l 808 800 l 867 568 l 971 568 l 843 1064 l 682 758 l 521 1064 l 393 568 l 496 568 l 556 799 z m 7 950 l 139 950 l 139 568 l 249 568 l 249 950 l 378 950 l 378 1047 l 7 1047 z "},"#":{"ha":979,"x_min":0,"x_max":0,"o":"m 513 0 l 619 282 l 808 282 l 851 404 l 665 404 l 758 649 l 900 649 l 942 771 l 804 771 l 908 1047 l 771 1047 l 667 771 l 500 771 l 604 1047 l 465 1047 l 361 771 l 171 771 l 128 649 l 315 649 l 222 404 l 79 404 l 38 282 l 176 282 l 69 0 l 207 0 l 314 282 l 481 282 l 374 0 z m 360 404 l 453 649 l 619 649 l 526 404 z "},"°":{"ha":490,"x_min":0,"x_max":0,"o":"m 25 844 b 246 624 25 718 122 624 b 465 844 369 624 465 718 b 246 1064 465 969 369 1064 b 25 844 122 1064 25 969 z m 343 844 b 246 746 343 788 301 746 b 147 844 190 746 147 788 b 246 942 147 900 190 942 b 343 844 301 942 343 900 z "},"ƒ":{"ha":843,"x_min":0,"x_max":0,"o":"m 407 85 l 499 419 l 704 419 l 704 558 l 536 558 l 597 779 b 753 918 619 863 665 918 b 844 894 789 918 822 907 l 844 1042 b 736 1064 815 1057 778 1064 b 435 797 565 1064 476 949 l 369 558 l 164 558 l 164 419 l 331 419 l 244 103 b 89 -36 222 18 176 -36 b -3 -12 53 -36 19 -26 l -3 -160 b 107 -182 26 -174 63 -182 b 407 85 276 -182 365 -67 z "},"€":{"ha":928,"x_min":0,"x_max":0,"o":"m 28 343 l 157 343 b 649 -17 226 133 415 -17 b 886 47 729 -17 815 1 l 886 235 b 650 139 825 172 738 139 b 333 343 506 139 390 219 l 558 343 l 614 469 l 299 469 b 296 524 297 488 296 506 b 300 586 296 544 297 565 l 654 586 l 710 714 l 338 714 b 650 908 396 832 510 908 b 886 813 736 908 825 875 l 886 1000 b 650 1064 815 1046 729 1064 b 160 714 419 1064 232 918 l 28 714 l 28 586 l 131 586 b 128 524 129 565 128 544 b 131 469 128 506 129 488 l 28 469 z "},"$":{"ha":819,"x_min":0,"x_max":0,"o":"m 786 310 b 489 604 786 504 633 561 l 489 917 b 626 799 550 899 597 857 l 749 890 b 489 1060 696 979 608 1043 l 489 1188 l 360 1188 l 360 1058 b 86 765 196 1033 86 918 b 360 489 86 586 224 531 l 360 132 b 140 315 257 149 179 214 l 7 242 b 360 -14 54 96 192 1 l 360 -156 l 489 -156 l 489 -10 b 786 310 660 22 786 150 z m 236 776 b 360 921 236 853 286 903 l 360 646 b 236 776 288 672 236 708 z m 629 299 b 489 135 629 217 572 157 l 489 449 b 629 299 569 418 629 379 z "},"¢":{"ha":647,"x_min":0,"x_max":0,"o":"m 321 -156 l 450 -156 l 450 -15 b 599 26 506 -11 556 6 l 599 192 b 450 125 563 157 511 132 l 450 550 b 596 485 511 543 561 519 l 596 650 b 450 690 554 671 506 686 l 450 843 l 321 843 l 321 681 b 36 338 157 642 36 506 b 321 -6 36 169 157 33 z m 183 338 b 321 535 183 432 238 504 l 321 140 b 183 338 238 171 183 243 z "},"£":{"ha":815,"x_min":0,"x_max":0,"o":"m 260 103 b 586 -15 369 103 439 -15 b 826 172 700 -15 793 68 l 704 249 b 575 136 681 176 633 136 b 385 219 508 136 454 185 b 347 424 382 304 367 369 l 563 424 l 563 556 l 289 556 b 246 718 265 606 246 656 b 440 917 246 829 318 917 b 635 729 543 917 611 850 l 789 776 b 440 1064 754 954 625 1064 b 78 717 222 1064 78 903 b 114 556 78 654 93 604 l 22 556 l 22 424 l 178 424 b 228 253 201 374 221 319 b 8 67 122 243 39 164 l 131 -10 b 260 103 156 63 200 103 z "},"¥":{"ha":879,"x_min":0,"x_max":0,"o":"m 54 318 l 357 318 l 357 0 l 522 0 l 522 318 l 825 318 l 825 453 l 525 453 l 594 569 l 825 569 l 825 704 l 674 704 l 875 1047 l 699 1047 l 442 604 l 185 1047 l 4 1047 l 206 704 l 54 704 l 54 569 l 285 569 l 354 453 l 54 453 z "},"฿":{"ha":850,"x_min":0,"x_max":0,"o":"m 601 553 b 756 774 686 582 756 658 b 497 1042 756 913 657 1017 l 497 1188 l 372 1188 l 372 1047 l 115 1047 l 115 0 l 372 0 l 372 -156 l 497 -156 l 497 1 b 807 296 694 18 807 136 b 601 553 807 429 725 521 z m 269 911 l 372 911 l 372 594 l 269 594 z m 607 751 b 497 604 607 674 563 624 l 497 901 b 607 751 563 881 607 829 z m 269 471 l 372 471 l 372 136 l 269 136 z m 650 304 b 497 139 650 215 593 153 l 497 468 b 650 304 593 456 650 393 z "},"₫":{"ha":865,"x_min":0,"x_max":0,"o":"m 565 1047 l 565 964 l 386 964 l 386 832 l 565 832 l 565 639 b 369 736 531 697 457 736 b 64 417 194 736 64 597 b 369 97 64 235 194 97 b 565 206 457 97 528 143 l 565 114 l 721 114 l 721 832 l 825 832 l 825 964 l 721 964 l 721 1047 z m 219 417 b 399 603 219 524 293 603 b 572 417 500 603 572 524 b 399 231 572 310 500 231 b 219 417 293 231 219 310 z m 721 0 l 74 0 l 74 -137 l 721 -137 z "},"₣":{"ha":782,"x_min":0,"x_max":0,"o":"m 160 0 l 332 0 l 332 214 l 529 214 l 529 351 l 332 351 l 332 468 l 711 468 l 711 617 l 332 617 l 332 899 l 717 899 l 717 1047 l 160 1047 l 160 351 l 56 351 l 56 214 l 160 214 z "},"₦":{"ha":1051,"x_min":0,"x_max":0,"o":"m 56 333 l 160 333 l 160 0 l 325 0 l 325 656 l 892 -39 l 892 333 l 996 333 l 996 468 l 892 468 l 892 585 l 996 585 l 996 721 l 892 721 l 892 1047 l 726 1047 l 726 392 l 160 1085 l 160 721 l 56 721 l 56 585 l 160 585 l 160 468 l 56 468 z "},"₧":{"ha":954,"x_min":0,"x_max":0,"o":"m 331 372 l 454 372 b 818 642 649 372 789 475 l 924 642 l 924 778 l 818 778 b 454 1047 789 946 649 1047 l 160 1047 l 160 778 l 56 778 l 56 642 l 160 642 l 160 0 l 331 0 z m 331 915 l 453 915 b 653 778 554 915 629 868 l 331 778 z m 331 504 l 331 642 l 653 642 b 453 504 629 551 554 504 z "},"₱":{"ha":932,"x_min":0,"x_max":0,"o":"m 333 331 l 408 331 b 753 490 567 331 688 388 l 901 490 l 901 626 l 801 626 b 806 689 804 646 806 667 b 803 743 806 707 804 725 l 901 743 l 901 878 l 758 878 b 408 1047 696 986 572 1047 l 160 1047 l 160 878 l 56 878 l 56 743 l 160 743 l 160 626 l 56 626 l 56 490 l 160 490 l 160 0 l 333 0 z m 333 901 l 397 901 b 629 689 540 901 629 835 b 397 476 629 542 540 476 l 333 476 z "},"₽":{"ha":833,"x_min":0,"x_max":0,"o":"m 56 300 l 56 169 l 160 169 l 160 0 l 333 0 l 333 169 l 518 169 l 518 300 l 333 300 l 333 417 l 436 417 b 800 732 647 417 800 533 b 436 1047 800 931 647 1047 l 160 1047 l 160 554 l 56 554 l 56 417 l 160 417 l 160 300 z m 431 906 b 629 732 540 906 629 851 b 431 554 629 614 540 554 l 333 554 l 333 906 z "},"₹":{"ha":808,"x_min":0,"x_max":0,"o":"m 65 421 l 189 421 l 510 0 l 715 0 l 381 431 b 636 665 517 456 614 536 l 743 665 l 743 797 l 633 797 b 561 914 621 844 596 883 l 743 914 l 743 1047 l 65 1047 l 65 914 l 272 914 b 465 797 363 914 438 874 l 65 797 l 65 665 l 468 665 b 272 549 443 585 367 549 l 65 549 z "},"₺":{"ha":818,"x_min":0,"x_max":0,"o":"m 153 0 l 397 0 b 786 422 663 0 786 146 l 613 422 b 389 149 613 225 539 149 l 319 149 l 319 349 l 463 453 l 463 599 l 319 494 l 319 618 l 463 722 l 463 869 l 319 765 l 319 1047 l 153 1047 l 153 661 l 50 586 l 50 439 l 153 515 l 153 392 l 50 315 l 50 169 l 153 244 z "},"₩":{"ha":1164,"x_min":0,"x_max":0,"o":"m 46 333 l 257 333 l 349 -39 l 582 669 l 815 -39 l 907 333 l 1118 333 l 1118 468 l 940 468 l 968 585 l 1118 585 l 1118 721 l 1001 721 l 1082 1047 l 928 1047 l 786 444 l 582 1076 l 379 444 l 236 1047 l 81 1047 l 161 721 l 46 721 l 46 585 l 194 585 l 224 468 l 46 468 z "},"⁰":{"ha":519,"x_min":0,"x_max":0,"o":"m 29 760 b 260 463 29 588 128 463 b 492 760 392 463 492 588 b 260 1057 492 932 392 1057 b 29 760 128 1057 29 932 z m 156 760 b 260 936 156 860 194 936 b 364 760 325 936 364 860 b 260 583 364 660 325 583 b 156 760 194 583 156 660 z "},"¹":{"ha":419,"x_min":0,"x_max":0,"o":"m 38 472 l 401 472 l 401 582 l 286 582 l 286 1047 l 94 1047 l 19 938 l 154 938 l 154 582 l 38 582 z "},"²":{"ha":440,"x_min":0,"x_max":0,"o":"m 146 854 b 217 931 146 894 172 931 b 281 864 257 931 281 901 b 210 731 281 821 251 781 l 4 472 l 428 472 l 428 582 l 240 582 l 307 664 b 415 876 356 725 415 794 b 218 1056 415 982 338 1056 b 6 854 96 1056 13 965 z "},"³":{"ha":450,"x_min":0,"x_max":0,"o":"m 222 722 b 306 650 268 722 306 697 b 222 571 306 603 269 571 b 136 663 169 571 136 611 l 7 663 b 224 463 8 544 94 463 b 431 643 346 463 431 542 b 350 776 431 706 397 750 b 410 889 379 797 410 838 b 228 1057 410 989 340 1057 b 32 871 111 1057 38 972 l 156 871 b 224 944 157 914 182 944 b 288 883 263 944 288 918 b 221 821 288 843 256 821 l 189 821 l 189 722 z "},"⁴":{"ha":544,"x_min":0,"x_max":0,"o":"m 433 472 l 433 569 l 535 569 l 535 669 l 433 669 l 433 1069 l -15 569 l 313 569 l 313 472 z m 207 669 l 313 799 l 313 669 z "},"⁵":{"ha":421,"x_min":0,"x_max":0,"o":"m 274 669 b 178 579 274 614 232 579 b 57 668 118 579 75 621 l -35 579 b 174 463 7 508 82 463 b 403 674 308 463 403 558 b 213 858 403 774 333 858 b 186 857 204 858 194 858 l 204 938 l 382 938 l 382 1047 l 115 1047 l 46 733 b 157 763 85 753 121 763 b 274 669 229 763 274 724 z "},"⁶":{"ha":471,"x_min":0,"x_max":0,"o":"m 450 675 b 263 875 450 785 371 868 l 351 989 l 254 1057 l 96 847 b 21 674 44 779 21 732 b 235 463 21 554 115 463 b 450 675 358 463 450 554 z m 236 768 b 329 674 289 768 329 728 b 236 578 329 622 289 578 b 143 674 183 578 143 622 b 236 768 143 728 183 768 z "},"⁷":{"ha":494,"x_min":0,"x_max":0,"o":"m 492 1047 l 32 1047 l 32 938 l 300 938 l 69 519 l 178 464 z "},"⁸":{"ha":450,"x_min":0,"x_max":0,"o":"m 225 1057 b 44 896 129 1057 44 992 b 108 776 44 842 74 801 b 15 638 68 758 15 710 b 225 463 15 535 108 463 b 436 638 342 463 436 535 b 343 776 436 710 383 758 b 406 896 376 801 406 842 b 225 1057 406 992 322 1057 z m 225 831 b 161 894 189 831 161 856 b 225 957 161 931 189 957 b 290 894 263 957 290 931 b 225 831 290 856 263 831 z m 225 568 b 146 646 181 568 146 600 b 225 724 146 692 181 724 b 304 646 269 724 304 692 b 225 568 304 600 269 568 z "},"⁹":{"ha":471,"x_min":0,"x_max":0,"o":"m 22 846 b 210 646 22 736 101 653 l 121 531 l 218 463 l 375 672 b 450 847 428 742 450 788 b 236 1057 450 965 356 1057 b 22 846 114 1057 22 965 z m 235 751 b 142 847 183 751 142 793 b 235 942 142 899 183 942 b 328 847 288 942 328 899 b 235 751 328 793 288 751 z "},"₀":{"ha":519,"x_min":0,"x_max":0,"o":"m 29 93 b 260 -204 29 -79 128 -204 b 492 93 392 -204 492 -79 b 260 390 492 265 392 390 b 29 93 128 390 29 265 z m 156 93 b 260 269 156 193 194 269 b 364 93 325 269 364 193 b 260 -83 364 -7 325 -83 b 156 93 194 -83 156 -7 z "},"₁":{"ha":419,"x_min":0,"x_max":0,"o":"m 38 -194 l 401 -194 l 401 -85 l 286 -85 l 286 381 l 94 381 l 19 271 l 154 271 l 154 -85 l 38 -85 z "},"₂":{"ha":440,"x_min":0,"x_max":0,"o":"m 146 188 b 217 264 146 228 172 264 b 281 197 257 264 281 235 b 210 64 281 154 251 114 l 4 -194 l 428 -194 l 428 -85 l 240 -85 l 307 -3 b 415 210 356 58 415 128 b 218 389 415 315 338 389 b 6 188 96 389 13 299 z "},"₃":{"ha":450,"x_min":0,"x_max":0,"o":"m 222 56 b 306 -17 268 56 306 31 b 222 -96 306 -64 269 -96 b 136 -4 169 -96 136 -56 l 7 -4 b 224 -204 8 -122 94 -204 b 431 -24 346 -204 431 -125 b 350 110 431 39 397 83 b 410 222 379 131 410 171 b 228 390 410 322 340 390 b 32 204 111 390 38 306 l 156 204 b 224 278 157 247 182 278 b 288 217 263 278 288 251 b 221 154 288 176 256 154 l 189 154 l 189 56 z "},"₄":{"ha":544,"x_min":0,"x_max":0,"o":"m 433 -194 l 433 -97 l 535 -97 l 535 3 l 433 3 l 433 403 l -15 -97 l 313 -97 l 313 -194 z m 207 3 l 313 132 l 313 3 z "},"₅":{"ha":421,"x_min":0,"x_max":0,"o":"m 274 3 b 178 -87 274 -53 232 -87 b 57 1 118 -87 75 -46 l -35 -87 b 174 -204 7 -158 82 -204 b 403 7 308 -204 403 -108 b 213 192 403 107 333 192 b 186 190 204 192 194 192 l 204 271 l 382 271 l 382 381 l 115 381 l 46 67 b 157 96 85 86 121 96 b 274 3 229 96 274 57 z "},"₆":{"ha":471,"x_min":0,"x_max":0,"o":"m 450 8 b 263 208 450 118 371 201 l 351 322 l 254 390 l 96 181 b 21 7 44 113 21 65 b 235 -204 21 -112 115 -204 b 450 8 358 -204 450 -112 z m 236 101 b 329 7 289 101 329 61 b 236 -89 329 -44 289 -89 b 143 7 183 -89 143 -44 b 236 101 143 61 183 101 z "},"₇":{"ha":494,"x_min":0,"x_max":0,"o":"m 492 381 l 32 381 l 32 271 l 300 271 l 69 -147 l 178 -203 z "},"₈":{"ha":450,"x_min":0,"x_max":0,"o":"m 225 390 b 44 229 129 390 44 325 b 108 110 44 175 74 135 b 15 -29 68 92 15 43 b 225 -204 15 -132 108 -204 b 436 -29 342 -204 436 -132 b 343 110 436 43 383 92 b 406 229 376 135 406 175 b 225 390 406 325 322 390 z m 225 164 b 161 228 189 164 161 189 b 225 290 161 264 189 290 b 290 228 263 290 290 264 b 225 164 290 189 263 164 z m 225 -99 b 146 -21 181 -99 146 -67 b 225 57 146 25 181 57 b 304 -21 269 57 304 25 b 225 -99 304 -67 269 -99 z "},"₉":{"ha":471,"x_min":0,"x_max":0,"o":"m 22 179 b 210 -21 22 69 101 -14 l 121 -136 l 218 -204 l 375 6 b 450 181 428 75 450 121 b 236 390 450 299 356 390 b 22 179 114 390 22 299 z m 235 85 b 142 181 183 85 142 126 b 235 275 142 232 183 275 b 328 181 288 275 328 232 b 235 85 328 126 288 85 z "},"⁄":{"ha":236,"x_min":0,"x_max":0,"o":"m -275 47 l -176 -18 l 511 1000 l 413 1065 z "},"½":{"ha":1192,"x_min":0,"x_max":0,"o":"m 213 47 l 311 -18 l 999 1000 l 900 1065 z m 38 472 l 401 472 l 401 582 l 286 582 l 286 1047 l 94 1047 l 19 938 l 154 938 l 154 582 l 38 582 z m 896 382 b 967 458 896 422 922 458 b 1031 392 1007 458 1031 429 b 960 258 1031 349 1001 308 l 754 0 l 1178 0 l 1178 110 l 990 110 l 1057 192 b 1165 404 1106 253 1165 322 b 968 583 1165 510 1088 583 b 756 382 846 583 763 493 z "},"¼":{"ha":1113,"x_min":0,"x_max":0,"o":"m 213 47 l 311 -18 l 999 1000 l 900 1065 z m 38 472 l 401 472 l 401 582 l 286 582 l 286 1047 l 94 1047 l 19 938 l 154 938 l 154 582 l 38 582 z m 1000 0 l 1000 97 l 1101 97 l 1101 197 l 1000 197 l 1000 597 l 551 97 l 879 97 l 879 0 z m 774 197 l 879 326 l 879 197 z "},"¾":{"ha":1101,"x_min":0,"x_max":0,"o":"m 201 47 l 300 -18 l 988 1000 l 889 1065 z m 222 722 b 306 650 268 722 306 697 b 222 571 306 603 269 571 b 136 663 169 571 136 611 l 7 663 b 224 463 8 544 94 463 b 431 643 346 463 431 542 b 350 776 431 706 397 750 b 410 889 379 797 410 838 b 228 1057 410 989 340 1057 b 32 871 111 1057 38 972 l 156 871 b 224 944 157 914 182 944 b 288 883 263 944 288 918 b 221 821 288 843 256 821 l 189 821 l 189 722 z m 989 0 l 989 97 l 1090 97 l 1090 197 l 989 197 l 989 597 l 540 97 l 868 97 l 868 0 z m 763 197 l 868 326 l 868 197 z "},"⅓":{"ha":1200,"x_min":0,"x_max":0,"o":"m 213 47 l 311 -18 l 999 1000 l 900 1065 z m 38 472 l 401 472 l 401 582 l 286 582 l 286 1047 l 94 1047 l 19 938 l 154 938 l 154 582 l 38 582 z m 972 250 b 1056 178 1018 250 1056 225 b 972 99 1056 131 1019 99 b 886 190 919 99 886 139 l 757 190 b 974 -10 758 72 844 -10 b 1181 171 1096 -10 1181 69 b 1100 304 1181 233 1147 278 b 1160 417 1129 325 1160 365 b 978 585 1160 517 1090 585 b 782 399 861 585 788 500 l 906 399 b 974 472 907 442 932 472 b 1038 411 1013 472 1038 446 b 971 349 1038 371 1006 349 l 939 349 l 939 250 z "},"⅔":{"ha":1208,"x_min":0,"x_max":0,"o":"m 221 47 l 319 -18 l 1007 1000 l 908 1065 z m 146 854 b 217 931 146 894 172 931 b 281 864 257 931 281 901 b 210 731 281 821 251 781 l 4 472 l 428 472 l 428 582 l 240 582 l 307 664 b 415 876 356 725 415 794 b 218 1056 415 982 338 1056 b 6 854 96 1056 13 965 z m 981 250 b 1064 178 1026 250 1064 225 b 981 99 1064 131 1028 99 b 894 190 928 99 894 139 l 765 190 b 982 -10 767 72 853 -10 b 1189 171 1104 -10 1189 69 b 1108 304 1189 233 1156 278 b 1168 417 1138 325 1168 365 b 986 585 1168 517 1099 585 b 790 399 869 585 796 500 l 914 399 b 982 472 915 442 940 472 b 1046 411 1021 472 1046 446 b 979 349 1046 371 1014 349 l 947 349 l 947 250 z "},"⅛":{"ha":1201,"x_min":0,"x_max":0,"o":"m 213 47 l 311 -18 l 999 1000 l 900 1065 z m 38 472 l 401 472 l 401 582 l 286 582 l 286 1047 l 94 1047 l 19 938 l 154 938 l 154 582 l 38 582 z m 975 585 b 794 424 879 585 794 519 b 858 304 794 369 824 329 b 765 165 818 286 765 238 b 975 -10 765 63 858 -10 b 1186 165 1092 -10 1186 63 b 1093 304 1186 238 1133 286 b 1156 424 1126 329 1156 369 b 975 585 1156 519 1072 585 z m 975 358 b 911 422 939 358 911 383 b 975 485 911 458 939 485 b 1040 422 1013 485 1040 458 b 975 358 1040 383 1013 358 z m 975 96 b 896 174 931 96 896 128 b 975 251 896 219 931 251 b 1054 174 1019 251 1054 219 b 975 96 1054 128 1019 96 z "},"⅜":{"ha":1190,"x_min":0,"x_max":0,"o":"m 201 47 l 300 -18 l 988 1000 l 889 1065 z m 222 722 b 306 650 268 722 306 697 b 222 571 306 603 269 571 b 136 663 169 571 136 611 l 7 663 b 224 463 8 544 94 463 b 431 643 346 463 431 542 b 350 776 431 706 397 750 b 410 889 379 797 410 838 b 228 1057 410 989 340 1057 b 32 871 111 1057 38 972 l 156 871 b 224 944 157 914 182 944 b 288 883 263 944 288 918 b 221 821 288 843 256 821 l 189 821 l 189 722 z m 964 585 b 783 424 868 585 783 519 b 847 304 783 369 813 329 b 754 165 807 286 754 238 b 964 -10 754 63 847 -10 b 1175 165 1081 -10 1175 63 b 1082 304 1175 238 1122 286 b 1144 424 1115 329 1144 369 b 964 585 1144 519 1061 585 z m 964 358 b 900 422 928 358 900 383 b 964 485 900 458 928 485 b 1029 422 1001 485 1029 458 b 964 358 1029 383 1001 358 z m 964 96 b 885 174 919 96 885 128 b 964 251 885 219 919 251 b 1043 174 1008 251 1043 219 b 964 96 1043 128 1008 96 z "},"⅝":{"ha":1161,"x_min":0,"x_max":0,"o":"m 172 47 l 271 -18 l 958 1000 l 860 1065 z m 274 669 b 178 579 274 614 232 579 b 57 668 118 579 75 621 l -35 579 b 174 463 7 508 82 463 b 403 674 308 463 403 558 b 213 858 403 774 333 858 b 186 857 204 858 194 858 l 204 938 l 382 938 l 382 1047 l 115 1047 l 46 733 b 157 763 85 753 121 763 b 274 669 229 763 274 724 z m 936 585 b 756 424 840 585 756 519 b 819 304 756 369 785 329 b 726 165 779 286 726 238 b 936 -10 726 63 819 -10 b 1147 165 1053 -10 1147 63 b 1054 304 1147 238 1094 286 b 1117 424 1088 329 1117 369 b 936 585 1117 519 1033 585 z m 936 358 b 872 422 900 358 872 383 b 936 485 872 458 900 485 b 1001 422 974 485 1001 458 b 936 358 1001 383 974 358 z m 936 96 b 857 174 892 96 857 128 b 936 251 857 219 892 251 b 1015 174 981 251 1015 219 b 936 96 1015 128 981 96 z "},"⅞":{"ha":1082,"x_min":0,"x_max":0,"o":"m 93 47 l 192 -18 l 879 1000 l 781 1065 z m 492 1047 l 32 1047 l 32 938 l 300 938 l 69 519 l 178 464 z m 856 585 b 675 424 760 585 675 519 b 739 304 675 369 704 329 b 646 165 699 286 646 238 b 856 -10 646 63 739 -10 b 1067 165 972 -10 1067 63 b 974 304 1067 238 1014 286 b 1036 424 1007 329 1036 369 b 856 585 1036 519 953 585 z m 856 358 b 792 422 819 358 792 383 b 856 485 792 458 819 485 b 921 422 893 485 921 458 b 856 358 921 383 893 358 z m 856 96 b 776 174 811 96 776 128 b 856 251 776 219 811 251 b 935 174 900 251 935 219 b 856 96 935 128 900 96 z "},"%":{"ha":1036,"x_min":0,"x_max":0,"o":"m 104 56 l 211 -17 l 933 993 l 826 1065 z m 478 838 b 253 1064 478 964 378 1064 b 28 838 128 1064 28 964 b 253 611 28 711 128 611 b 478 838 378 611 478 711 z m 253 944 b 357 838 311 944 357 897 b 253 731 357 778 311 731 b 149 838 194 731 149 778 b 253 944 149 897 194 944 z m 558 210 b 785 -17 558 83 658 -17 b 1008 210 908 -17 1008 83 b 785 436 1008 336 908 436 b 558 210 658 436 558 336 z m 888 210 b 785 103 888 150 843 103 b 679 210 726 103 679 150 b 785 317 679 269 726 317 b 888 210 843 317 888 269 z "},"+":{"ha":833,"x_min":0,"x_max":0,"o":"m 781 431 l 781 565 l 483 565 l 483 863 l 349 863 l 349 565 l 53 565 l 53 431 l 349 431 l 349 135 l 483 135 l 483 431 z "},"−":{"ha":833,"x_min":0,"x_max":0,"o":"m 53 431 l 781 431 l 781 565 l 53 565 z "},"×":{"ha":833,"x_min":0,"x_max":0,"o":"m 322 497 l 89 264 l 185 169 l 417 401 l 647 169 l 744 264 l 513 497 l 744 732 l 647 825 l 417 593 l 185 825 l 89 732 z "},"÷":{"ha":833,"x_min":0,"x_max":0,"o":"m 417 688 b 525 796 476 688 525 736 b 417 903 525 854 476 903 b 308 796 358 903 308 854 b 417 688 308 736 358 688 z m 53 431 l 781 431 l 781 565 l 53 565 z m 417 93 b 525 201 476 93 525 142 b 417 308 525 260 476 308 b 308 201 358 308 308 260 b 417 93 308 142 358 93 z "},"=":{"ha":833,"x_min":0,"x_max":0,"o":"m 65 585 l 768 585 l 768 710 l 65 710 z m 65 290 l 768 290 l 768 415 l 65 415 z "},"<":{"ha":833,"x_min":0,"x_max":0,"o":"m 85 404 l 749 103 l 749 264 l 217 496 l 749 729 l 749 889 l 85 588 z "},">":{"ha":833,"x_min":0,"x_max":0,"o":"m 756 404 l 756 588 l 92 889 l 92 729 l 624 496 l 92 264 l 92 103 z "},"ﬀ":{"ha":900,"x_min":0,"x_max":0,"o":"m 567 0 l 731 0 l 731 532 l 899 532 l 899 675 l 731 675 l 731 876 b 838 985 731 950 775 985 b 903 972 864 985 881 981 l 903 1118 b 817 1131 882 1125 853 1131 b 635 1047 742 1131 679 1104 b 429 1136 582 1108 511 1136 b 128 843 256 1136 128 1011 l 128 675 l 42 675 l 42 532 l 128 532 l 128 0 l 292 0 l 292 532 l 567 532 z m 292 675 l 292 831 b 429 989 292 926 346 989 b 567 831 513 989 567 926 l 567 675 z "},"ﬁ":{"ha":829,"x_min":0,"x_max":0,"o":"m 731 842 b 429 1136 731 1011 603 1136 b 128 843 256 1136 128 1011 l 128 675 l 42 675 l 42 532 l 128 532 l 128 0 l 292 0 l 292 532 l 456 532 l 456 675 l 292 675 l 292 831 b 429 989 292 926 346 989 b 567 831 513 989 567 926 l 567 811 l 731 811 z m 567 675 l 567 0 l 731 0 l 731 675 z "},"ﬃ":{"ha":1267,"x_min":0,"x_max":0,"o":"m 1168 842 b 867 1136 1168 1011 1040 1136 b 644 1040 776 1136 699 1101 b 429 1136 592 1106 514 1136 b 128 843 256 1136 128 1011 l 128 675 l 42 675 l 42 532 l 128 532 l 128 0 l 292 0 l 292 532 l 567 532 l 567 0 l 731 0 l 731 532 l 894 532 l 894 675 l 731 675 l 731 831 b 867 989 731 926 783 989 b 1004 831 951 989 1004 926 l 1004 811 l 1168 811 z m 292 675 l 292 831 b 429 989 292 926 346 989 b 567 831 513 989 567 926 l 567 675 z m 1004 675 l 1004 0 l 1168 0 l 1168 675 z "},"ﬂ":{"ha":829,"x_min":0,"x_max":0,"o":"m 731 842 b 429 1136 731 1011 603 1136 b 128 843 256 1136 128 1011 l 128 675 l 42 675 l 42 532 l 128 532 l 128 0 l 292 0 l 292 532 l 456 532 l 456 675 l 292 675 l 292 831 b 429 989 292 926 346 989 b 567 831 513 989 567 926 l 567 0 l 731 0 z "},"ﬄ":{"ha":1267,"x_min":0,"x_max":0,"o":"m 1168 842 b 867 1136 1168 1011 1040 1136 b 644 1040 776 1136 699 1101 b 429 1136 592 1106 514 1136 b 128 843 256 1136 128 1011 l 128 675 l 42 675 l 42 532 l 128 532 l 128 0 l 292 0 l 292 532 l 567 532 l 567 0 l 731 0 l 731 532 l 894 532 l 894 675 l 731 675 l 731 831 b 867 989 731 926 783 989 b 1004 831 951 989 1004 926 l 1004 0 l 1168 0 z m 292 675 l 292 831 b 429 989 292 926 346 989 b 567 831 513 989 567 926 l 567 675 z "},"̀":{"ha":0,"x_min":0,"x_max":0,"o":"m 151 822 l -22 1097 l -151 996 l 76 761 z "},"́":{"ha":0,"x_min":0,"x_max":0,"o":"m -151 822 l -76 761 l 151 996 l 22 1097 z "},"̂":{"ha":0,"x_min":0,"x_max":0,"o":"m 1 1100 l -239 842 l -157 776 l 1 921 l 160 776 l 240 842 z "},"̃":{"ha":0,"x_min":0,"x_max":0,"o":"m -96 1038 b -254 833 -189 1038 -249 946 l -146 818 b -85 904 -143 875 -118 904 b 94 821 -32 904 14 821 b 254 1024 188 821 249 911 l 144 1039 b 82 954 140 982 118 954 b -96 1038 31 954 -15 1038 z "},"̄":{"ha":0,"x_min":0,"x_max":0,"o":"m -219 860 l 218 860 l 218 992 l -219 992 z "},"̆":{"ha":0,"x_min":0,"x_max":0,"o":"m 0 804 b 232 1039 124 804 222 899 l 107 1056 b 0 928 101 974 56 928 b -108 1056 -56 928 -103 974 l -232 1039 b 0 804 -224 899 -125 804 z "},"̇":{"ha":0,"x_min":0,"x_max":0,"o":"m 0 846 b 101 947 56 846 101 890 b 0 1049 101 1003 56 1049 b -103 947 -56 1049 -103 1003 b 0 846 -103 890 -56 846 z "},"̈":{"ha":0,"x_min":0,"x_max":0,"o":"m 146 846 b 246 944 200 846 246 889 b 146 1044 246 1000 200 1044 b 46 944 92 1044 46 1000 b 146 846 46 889 92 846 z m -146 846 b -47 944 -92 846 -47 889 b -146 1044 -47 1000 -92 1044 b -246 944 -200 1044 -246 1000 b -146 846 -246 889 -200 846 z "},"̊":{"ha":0,"x_min":0,"x_max":0,"o":"m 188 964 b 1 1146 188 1064 104 1146 b -186 964 -103 1146 -186 1064 b 1 782 -186 863 -103 782 b 188 964 104 782 188 863 z m -82 964 b 1 1046 -82 1011 -46 1046 b 83 964 47 1046 83 1011 b 1 882 83 915 47 882 b -82 964 -46 882 -82 915 z "},"̋":{"ha":0,"x_min":0,"x_max":0,"o":"m -272 819 l -192 769 l 3 1011 l -132 1093 z m -1 819 l 79 769 l 274 1011 l 139 1093 z "},"̌":{"ha":0,"x_min":0,"x_max":0,"o":"m 1 776 l 240 1035 l 160 1100 l 1 956 l -157 1100 l -239 1035 z "},"̒":{"ha":0,"x_min":0,"x_max":0,"o":"m 138 1057 l 56 1110 l -139 886 l -4 803 z "},"̦":{"ha":0,"x_min":0,"x_max":0,"o":"m -139 -311 l -57 -364 l 138 -140 l 3 -57 z "},"̧":{"ha":0,"x_min":0,"x_max":0,"o":"m -139 -311 l -57 -364 l 138 -140 l 3 -57 z "},"̨":{"ha":0,"x_min":0,"x_max":0,"o":"m -14 13 b -161 -222 -110 -71 -161 -144 b -3 -364 -161 -315 -85 -364 b 163 -285 57 -364 114 -342 l 103 -196 b 22 -243 76 -226 50 -243 b -33 -187 -8 -243 -33 -222 b 107 0 -33 -142 8 -92 z "}}}
